<svg width="164" height="138" viewBox="0 0 164 138" fill="none" xmlns="http://www.w3.org/2000/svg">
<path d="M81.9928 12.6095L97.9564 56.4786H149.616L107.826 83.5866L123.79 127.456L82 100.348L40.2104 127.456L56.174 83.5866L14.3845 56.4786H66.0436L82.0072 12.6095M81.9928 0.00704837L77.923 11.1858L62.9858 52.2355H0L11.9942 60.0169L50.9629 85.2923L36.1406 126.025L31.7836 138L42.5863 130.994L82 105.429L121.414 130.994L132.216 138L127.859 126.025L113.037 85.2923L152.006 60.0169L164 52.2355H101.014L86.077 11.1787L82.0072 0L81.9928 0.00704837Z" fill="#B5B5B5"/>
</svg>
