<svg width="21" height="14" viewBox="0 0 21 14" fill="none" xmlns="http://www.w3.org/2000/svg">
<path d="M9.14033 10.7841C9.14033 8.80922 14.2827 6.36046 14.2827 4.8594C14.2827 3.80357 13.4273 3.44101 12.4668 3.44101C9.99898 3.44101 8.55834 5.46999 6.50074 5.46999C6.36399 5.46999 6.2622 5.44137 6.12227 5.44137C4.81838 6.80251 2.9675 8.10957 1.83535 8.94597L1.62866 8.75198C3.20605 7.61028 4.64668 6.33183 5.43537 5.21875C4.6117 4.80215 3.99473 4.07706 3.99473 3.52052C3.99473 2.65868 5.12686 1.6283 6.36079 1.6283C7.04771 1.6283 7.76646 1.90498 7.76646 2.68413C7.76646 3.3806 7.25126 4.18519 6.56751 4.99296C6.70426 5.02158 6.84102 5.0502 6.97777 5.0502C8.76187 5.0502 10.3392 1.6283 13.8025 1.6283C15.9969 1.6283 17.2308 2.57282 17.2308 3.99119C17.2308 6.63396 10.441 8.35764 10.441 10.5838C10.441 11.1403 10.8863 11.6396 12.3619 11.6396C15.8252 11.6396 18.3629 8.99685 18.7732 8.7488L18.9799 8.9428C18.5697 9.30534 15.4817 12.3075 11.6432 12.3075C10.581 12.3075 9.14033 11.8336 9.14033 10.7778V10.7841ZM5.77882 4.57954C5.95055 4.27424 6.02052 3.96575 6.02052 3.68907C6.02052 2.9926 5.67706 2.52194 5.30179 2.52194C5.23182 2.52194 5.13006 2.55056 5.06327 2.60462C4.89154 2.71593 4.85655 2.85586 4.85655 3.04985C4.85655 3.49508 5.23501 4.16293 5.78201 4.57954H5.77882Z" fill="#FA2935"/>
<path d="M11.6431 13.9452C9.58868 13.9452 7.50882 12.8576 7.50882 10.7841C7.50882 8.94912 9.25792 7.53393 10.9498 6.16325C11.3378 5.84841 11.8498 5.43499 12.2251 5.08516C11.4555 5.15195 10.7717 5.52721 9.98937 5.95654C9.07664 6.45901 8.04944 7.02192 6.77735 7.09506C5.60703 8.20814 4.22999 9.21626 3.19006 9.97951L2.80845 10.2594C2.17241 10.73 1.29146 10.676 0.719026 10.1322L0.512343 9.93818C0.159339 9.60426 -0.028325 9.1304 0.00347714 8.64383C0.0352793 8.15725 0.28019 7.71202 0.674537 7.42898C1.62224 6.74206 2.45861 6.04877 3.10737 5.41273C2.67168 4.87845 2.3664 4.23604 2.3664 3.52368C2.3664 1.67915 4.27133 0 6.36391 0C7.7473 0 8.80953 0.661481 9.21978 1.69505C10.3615 0.833213 11.8307 0 13.8056 0C17.3007 0 18.8685 2.00671 18.8685 3.99753C18.8685 6.29046 16.5342 7.71838 14.4735 8.97775C14.0219 9.25443 13.4017 9.63287 12.8993 9.98905C14.995 9.77916 16.6583 8.38941 17.3993 7.76608C17.6473 7.55937 17.8318 7.41944 17.9304 7.35902C18.5569 6.97739 19.3647 7.06326 19.9021 7.56891L20.1088 7.7629C20.4428 8.07774 20.6272 8.5198 20.6208 8.97775C20.6113 9.4357 20.411 9.87139 20.0675 10.1735L19.9944 10.2371C17.323 12.6636 14.4385 13.9452 11.6494 13.9452H11.6431Z" fill="#FA2935"/>
</svg>
