<svg width="15" height="14" viewBox="0 0 15 14" fill="none" xmlns="http://www.w3.org/2000/svg">
<path d="M1.63477 8.80922C1.63477 5.19332 7.19059 1.63464 11.0641 1.63464C12.8132 1.63464 13.3284 2.35655 13.3284 3.10709C13.3284 5.13606 9.83018 6.33183 3.41886 8.72653C3.59059 9.58837 4.72275 10.5075 6.81533 10.5075C9.14643 10.5075 11.1341 9.97954 12.7146 8.75516L12.9531 8.94914C12.0945 9.75692 9.18141 12.3138 5.33971 12.3138C3.00861 12.3138 1.63795 10.4788 1.63795 8.80922H1.63477ZM10.7874 4.08341C10.7874 3.44419 10.2373 3.13889 9.21004 3.13889C6.12523 3.13889 3.55243 5.8071 3.3807 8.23042C7.35915 6.58943 10.7874 5.0025 10.7874 4.0866V4.08341Z" fill="#FA2935"/>
<path d="M5.33639 13.9484C2.04169 13.9484 0 11.2834 0 8.80921C0 3.94665 6.69435 0 11.064 0C13.9389 0 14.9597 1.67279 14.9597 3.10707C14.9597 5.69895 12.5555 6.9933 7.7629 8.83783C9.38163 8.7138 10.6792 8.2622 11.7096 7.46397C12.3074 6.99966 13.147 7.0092 13.7385 7.48623L13.9771 7.68022C14.3428 7.97598 14.5622 8.41804 14.5813 8.88871C14.6004 9.35938 14.4127 9.81415 14.0693 10.1385C12.5587 11.5601 9.41343 13.9484 5.33639 13.9484Z" fill="#FA2935"/>
</svg>
