<svg width="18" height="14" viewBox="0 0 18 14" fill="none" xmlns="http://www.w3.org/2000/svg">
<path d="M2.59511 10.9495C2.59511 9.91911 4.65273 8.64066 5.92164 8.64066C7.6008 8.64066 7.60079 10.253 8.69796 11.0322C9.52164 10.5583 10.5488 9.64243 10.5488 8.78059C10.5488 6.97105 8.38949 6.13783 6.39867 5.52723C4.99302 6.55762 3.27885 7.72476 1.83821 8.94914L1.63153 8.75516C3.03719 7.47671 4.64954 6.36363 5.74671 5.30462C4.85625 4.94207 4.16934 4.49684 4.16934 3.69224C4.16934 2.35655 5.60996 1.63464 7.25413 1.63464C8.48806 1.63464 9.07002 2.13394 9.07002 2.80179C9.07002 3.38695 8.14461 4.22016 6.87571 5.16469C9.27677 6.13783 13.4937 6.3032 13.4937 8.14137C13.4937 9.08589 11.6747 10.5043 9.62023 11.3661C11.5761 11.5887 14.8326 9.72512 15.793 8.75197L15.9997 8.94596C15.5895 9.30851 12.263 12.3106 8.9015 12.3106C8.28454 12.3106 7.8393 12.1707 7.46085 11.9767C6.6022 12.1707 5.50502 12.3106 4.71633 12.3106C3.10396 12.3106 2.58874 11.7255 2.58874 10.9463L2.59511 10.9495ZM6.67853 11.3661C6.02659 10.587 5.58134 9.58519 4.82763 9.58519C4.17568 9.58519 3.66051 9.94774 3.66051 10.3643C3.66051 10.9209 4.89443 11.3375 6.67853 11.3661ZM6.19832 4.83077C6.64355 4.30285 7.02198 3.74631 7.02198 3.2184C7.02198 2.69048 6.61172 2.4138 6.09653 2.4138C5.51455 2.4138 5.24107 2.88765 5.24107 3.44419C5.24107 4.05479 5.61952 4.50002 6.2015 4.83394L6.19832 4.83077Z" fill="#FA2935"/>
<path d="M8.90465 13.9452C8.32903 13.9452 7.79791 13.8594 7.29544 13.6813C6.4177 13.8467 5.4541 13.9452 4.72266 13.9452C1.14491 13.9452 0.963617 11.4488 0.963617 10.9495C0.963617 10.7523 0.989088 10.5583 1.03361 10.3675C0.922303 10.3039 0.817359 10.2276 0.718773 10.1354L0.512051 9.94135C0.181308 9.62969 -0.00313976 9.194 4.04527e-05 8.73923C0.00322067 8.28446 0.197192 7.85195 0.534295 7.54665C1.25302 6.89152 1.99719 6.3 2.71592 5.72756C2.84631 5.62262 2.97987 5.51768 3.10708 5.41591C2.77316 4.97386 2.54103 4.41096 2.54103 3.69223C2.54103 1.52014 4.48095 0 7.26046 0C9.64244 0 10.711 1.40566 10.711 2.80177C10.711 3.36785 10.5107 3.88304 10.1354 4.39505C12.1453 4.88163 14.4796 5.50813 15.0202 7.31767C15.6276 6.98693 16.3972 7.06962 16.922 7.56573L17.1287 7.75973C17.4626 8.07457 17.6471 8.51662 17.6407 8.97457C17.6343 9.43252 17.4308 9.86821 17.0873 10.1703C15.4718 11.5951 12.3074 13.9421 8.91098 13.9421L8.90465 13.9452ZM8.59932 8.2622C8.71063 8.39577 8.81242 8.52934 8.90147 8.65973C8.8633 8.52934 8.76151 8.39895 8.59932 8.2622Z" fill="#FA2935"/>
</svg>
