<svg width="155" height="128" viewBox="0 0 155 128" fill="none" xmlns="http://www.w3.org/2000/svg">
<path d="M77.4235 95.3571L33.5375 122.931L50.3027 78.3144L6.55267 50.8241H60.6296L77.4235 6.11819L94.2245 50.8241H148.294L104.551 78.3144L121.31 122.931L77.4235 95.3571Z" fill="#FA2935"/>
<path d="M77.4237 12.2424L92.6062 52.6548H141.742L101.995 77.6286L117.177 118.041L77.4308 93.0673L37.6841 118.041L52.8667 77.6286L13.12 52.6548H62.2555L77.438 12.2424M77.4237 0L73.2341 11.1511L59.0113 48.9994H0L10.4631 55.5708L47.7461 78.9942L33.4875 116.95L29.4054 127.821L40.3268 120.963L77.4308 97.647L114.535 120.963L125.456 127.821L121.374 116.95L107.115 78.9942L144.399 55.5708L154.862 48.9994H95.8503L81.6275 11.1511L77.438 0H77.4237Z" fill="#B5B5B5"/>
</svg>
