<svg width="23" height="14" viewBox="0 0 23 14" fill="none" xmlns="http://www.w3.org/2000/svg">
<path d="M11.666 10.8669C11.666 9.2832 15.4727 6.44645 15.4727 4.16305C15.4727 3.41252 14.9225 2.99591 13.7936 2.99591C10.8805 2.99591 8.61614 5.38743 7.00377 7.58496C4.6027 10.7556 5.21967 11.98 4.50094 11.98C4.05571 11.98 3.81402 11.8687 3.19706 11.8687C2.68186 11.8687 2.30658 11.98 1.79139 11.98C0.557464 11.98 8.5462 5.44467 8.5462 3.41252C6.72712 4.66552 4.56775 6.94574 2.0999 8.94609L1.89318 8.7521C5.35643 5.80404 8.68295 1.96552 9.29991 1.96552C9.71016 1.96552 9.64336 2.04821 10.1586 2.04821C10.537 2.04821 10.8773 1.96552 11.154 1.96552C11.7359 1.96552 10.7087 2.8846 10.3303 3.35527C11.2557 2.93867 14.0003 1.63159 16.3314 1.63159C17.5653 1.63159 18.6974 2.10544 18.6974 3.13265C18.6974 5.07895 13.9303 8.38956 13.9303 10.4758C13.9303 10.9496 14.4805 11.2263 15.2342 11.2263C17.737 11.2263 20.2748 9.00016 20.6533 8.7521L20.8918 8.94609C20.4815 9.30864 17.3935 12.3108 13.52 12.3108C12.4578 12.3108 11.6692 11.8655 11.6692 10.8638L11.666 10.8669Z" fill="#FA2935"/>
<path d="M13.5168 13.9452C11.4337 13.9452 10.0313 12.7081 10.0313 10.8668C10.0313 9.57245 10.9599 8.41485 12.0348 7.07598C12.6104 6.35725 13.4245 5.34594 13.7235 4.62721C11.9966 4.65901 10.2284 5.94382 8.31711 8.54842C7.07364 10.1894 6.76199 11.1816 6.57436 11.7763C6.41535 12.2788 5.99555 13.6113 4.49767 13.6113C4.17328 13.6113 3.92206 13.5732 3.72171 13.5445C3.54044 13.5191 3.41004 13.5 3.19378 13.5C3.00933 13.5 2.85352 13.5223 2.69451 13.5445C2.44963 13.5763 2.14752 13.6145 1.78815 13.6145C1.0567 13.6145 0.433343 13.2106 0.159845 12.5587C-0.186799 11.7318 0.0167629 11.1149 0.904044 10.0717L0.767277 9.94454C0.430174 9.62651 0.245726 9.1781 0.255267 8.71697C0.267988 8.25265 0.474717 7.81697 0.827721 7.51484C2.40829 6.16643 3.99202 4.59859 5.26411 3.33923C7.59203 1.03357 8.29169 0.337102 9.29027 0.337102C9.62738 0.337102 9.83727 0.375259 10.0058 0.410241C10.1966 0.445223 10.3588 0.403885 10.521 0.384804C10.7468 0.356182 10.9567 0.333919 11.1443 0.333919C11.6086 0.333919 12.0284 0.489751 12.3496 0.76325C13.5549 0.353002 14.967 0 16.3217 0C18.6751 0 20.3192 1.28798 20.3192 3.13569C20.3192 4.71626 18.9899 6.20142 17.5811 7.77563C17.1867 8.21768 16.592 8.87917 16.15 9.46115C17.5238 9.08588 18.8945 8.03323 19.4065 7.63888C19.5592 7.52121 19.6705 7.43853 19.7373 7.394C20.332 6.99648 21.1143 7.03463 21.6677 7.48622L21.9062 7.68022C22.2783 7.98234 22.5009 8.43393 22.5104 8.91732C22.52 9.39753 22.3164 9.85867 21.9571 10.1767L21.8871 10.2403C19.2157 12.6668 16.3186 13.9484 13.5072 13.9484L13.5168 13.9452Z" fill="#FA2935"/>
</svg>
