<svg width="21" height="14" viewBox="0 0 21 14" fill="none" xmlns="http://www.w3.org/2000/svg">
<path d="M9.14033 10.7841C9.14033 8.80922 14.2827 6.36046 14.2827 4.8594C14.2827 3.80357 13.4273 3.44101 12.4668 3.44101C9.999 3.44101 8.55836 5.46999 6.50076 5.46999C6.36401 5.46999 6.25906 5.44137 6.12231 5.44137C4.81842 6.80251 2.96754 8.10957 1.83538 8.94597L1.62866 8.75198C3.20605 7.61028 4.6467 6.33183 5.43539 5.21875C4.61172 4.80215 3.99474 4.07706 3.99474 3.52052C3.99474 2.65868 5.1269 1.6283 6.36083 1.6283C7.04775 1.6283 7.76648 1.90498 7.76648 2.68413C7.76648 3.3806 7.2513 4.18519 6.56755 4.99296C6.7043 5.02158 6.84104 5.0502 6.97779 5.0502C8.76189 5.0502 10.3393 1.6283 13.8025 1.6283C15.9969 1.6283 17.2308 2.57282 17.2308 3.99119C17.2308 6.63396 10.4411 8.35764 10.4411 10.5838C10.4411 11.1403 10.8863 11.6396 12.3619 11.6396C15.8252 11.6396 18.363 8.99685 18.7732 8.7488L18.9799 8.9428C18.5697 9.30534 15.4817 12.3075 11.64 12.3075C10.5778 12.3075 9.13715 11.8336 9.13715 10.7778L9.14033 10.7841ZM5.77884 4.57954C5.95057 4.27424 6.01736 3.96575 6.01736 3.68907C6.01736 2.9926 5.67389 2.52194 5.29863 2.52194C5.22866 2.52194 5.12689 2.55056 5.06011 2.60462C4.88838 2.71593 4.85341 2.85586 4.85341 3.04985C4.85341 3.49508 5.23184 4.16293 5.77884 4.57954Z" fill="#FA2935"/>
<path d="M11.6431 13.9452C9.58864 13.9452 7.50878 12.8576 7.50878 10.7841C7.50878 8.94912 9.2579 7.53393 10.9498 6.16325C11.3378 5.84841 11.8498 5.43499 12.2251 5.08516C11.4554 5.15195 10.7717 5.52721 9.98935 5.95654C9.07663 6.45901 8.04942 7.0251 6.77734 7.09506C5.60702 8.20814 4.22997 9.21626 3.19004 9.97951L2.80843 10.2594C2.17239 10.73 1.29147 10.676 0.719027 10.1322L0.512305 9.93818C0.159301 9.60426 -0.0283244 9.1304 0.00347773 8.64383C0.0352799 8.15725 0.280152 7.71202 0.674499 7.42898C1.6222 6.74206 2.45861 6.04877 3.10737 5.41273C2.67168 4.87845 2.36638 4.23604 2.36638 3.52368C2.36638 1.67915 4.27133 0 6.36391 0C7.74731 0 8.80949 0.661481 9.21974 1.69505C10.3614 0.833213 11.8307 0 13.8056 0C17.3007 0 18.8685 2.00671 18.8685 3.99753C18.8685 6.29046 16.5342 7.71838 14.4735 8.97775C14.0219 9.25443 13.4017 9.63287 12.8993 9.98905C14.995 9.77916 16.6583 8.38941 17.3993 7.76608C17.6473 7.55937 17.8318 7.41944 17.9304 7.35902C18.56 6.97739 19.3646 7.06326 19.8989 7.56891L20.1056 7.7629C20.4395 8.07774 20.624 8.5198 20.6176 8.97775C20.6113 9.4357 20.4078 9.87139 20.0643 10.1735L19.9911 10.2403C17.3198 12.6668 14.4353 13.9484 11.6462 13.9484L11.6431 13.9452Z" fill="#FA2935"/>
</svg>
