<svg width="129" height="107" viewBox="0 0 129 107" fill="none" xmlns="http://www.w3.org/2000/svg">
<path d="M41.7805 65.0463L5.44269 42.2192H50.36L64.3107 5.08652L78.2615 42.2192H123.172L86.8338 65.0463L100.763 102.107L64.3107 79.2028L27.8584 102.107L41.7805 65.0463Z" fill="#FA2935"/>
<path d="M64.3108 10.1672L76.9223 43.7339H117.736L84.7213 64.4798L97.3328 98.0465L64.318 77.3006L31.3032 98.0465L43.9147 64.4798L10.8999 43.7339H51.7136L64.3251 10.1672M64.3108 0L60.8303 9.26081L49.0209 40.6987H0L8.68697 46.1609L39.6536 65.6188L27.8083 97.1401L24.4138 106.168L33.4803 100.468L64.3037 81.1051L95.127 100.468L104.194 106.168L100.799 97.1401L88.9538 65.6188L119.92 46.1609L128.607 40.6987H79.5936L67.7842 9.26081L64.3037 0H64.3108Z" fill="#B5B5B5"/>
</svg>
