<svg width="23" height="14" viewBox="0 0 23 14" fill="none" xmlns="http://www.w3.org/2000/svg">
<path d="M11.6659 10.87C11.6659 9.28625 15.4727 6.4495 15.4727 4.1661C15.4727 3.41557 14.9257 2.99896 13.7935 2.99896C10.8773 2.99896 8.61614 5.39048 7.00377 7.58801C4.60271 10.7587 5.21967 11.9831 4.50094 11.9831C4.05571 11.9831 3.81398 11.8718 3.19702 11.8718C2.68182 11.8718 2.30658 11.9831 1.79139 11.9831C0.557465 11.9831 8.54617 5.44773 8.54617 3.41557C6.72708 4.66857 4.56771 6.94879 2.09986 8.94914L1.89314 8.75516C5.3564 5.80709 8.68291 1.96857 9.29988 1.96857C9.71012 1.96857 9.64332 2.05126 10.1553 2.05126C10.5338 2.05126 10.8741 1.96857 11.1507 1.96857C11.7327 1.96857 10.7055 2.88765 10.3271 3.35833C11.2525 2.94172 13.997 1.63464 16.3281 1.63464C17.5621 1.63464 18.6942 2.1085 18.6942 3.13571C18.6942 5.082 13.9271 8.39261 13.9271 10.4788C13.9271 10.9527 14.4741 11.2294 15.231 11.2294C17.7338 11.2294 20.2716 9.00321 20.6501 8.75516L20.8886 8.94914C20.4783 9.31169 17.3904 12.3138 13.5168 12.3138C12.4547 12.3138 11.6659 11.8686 11.6659 10.8668V10.87Z" fill="#FA2935"/>
<path d="M13.5168 13.9484C11.4337 13.9484 10.0312 12.7113 10.0312 10.87C10.0312 9.57563 10.9599 8.41804 12.0348 7.07917C12.6104 6.36044 13.4245 5.34912 13.7235 4.6304C11.9966 4.6622 10.2284 5.947 8.31712 8.5516C7.07365 10.1926 6.76196 11.1848 6.57433 11.7795C6.41532 12.282 5.99556 13.6145 4.49767 13.6145C4.17329 13.6145 3.92203 13.5763 3.72168 13.5477C3.54041 13.5223 3.41001 13.5032 3.19375 13.5032C3.0093 13.5032 2.85349 13.5255 2.69448 13.5477C2.4496 13.5795 2.14749 13.6177 1.78812 13.6177C1.05667 13.6177 0.433352 13.2138 0.159853 12.5619C-0.18679 11.735 0.0167327 11.118 0.904013 10.0749L0.767286 9.94454C0.430183 9.62651 0.245696 9.17811 0.255236 8.71698C0.267957 8.25266 0.474687 7.81698 0.827691 7.51485C2.40826 6.16644 3.99199 4.59859 5.26408 3.33923C7.592 1.03357 8.29166 0.337102 9.29024 0.337102C9.62735 0.337102 9.83724 0.375268 10.0058 0.410251C10.1934 0.445233 10.3588 0.403885 10.5178 0.384804C10.7436 0.356182 10.9535 0.333919 11.1412 0.333919C11.6055 0.333919 12.0284 0.489751 12.3464 0.76325C13.5517 0.353002 14.9637 0 16.3185 0C18.6719 0 20.3161 1.28798 20.3161 3.13569C20.3161 4.71626 18.9867 6.20143 17.5779 7.77563C17.1836 8.21768 16.5889 8.87917 16.1468 9.46115C17.5207 9.08588 18.8913 8.03323 19.4033 7.63888C19.556 7.52121 19.6673 7.43853 19.7341 7.394C20.3288 6.99648 21.1111 7.03464 21.6645 7.48623L21.903 7.68022C22.2751 7.98234 22.4977 8.43394 22.5072 8.91733C22.5168 9.39754 22.3133 9.85867 21.9539 10.1767L21.8839 10.2403C19.2125 12.6668 16.3153 13.9484 13.504 13.9484H13.5168Z" fill="#FA2935"/>
</svg>
