<svg width="15" height="14" viewBox="0 0 15 14" fill="none" xmlns="http://www.w3.org/2000/svg">
<path d="M1.63458 8.80922C1.63458 5.19332 7.19043 1.63464 11.0639 1.63464C12.8131 1.63464 13.3282 2.35655 13.3282 3.10709C13.3282 5.13606 9.83002 6.33183 3.4187 8.72653C3.59043 9.58837 4.72259 10.5075 6.81517 10.5075C9.14627 10.5075 11.1371 9.97954 12.7145 8.75516L12.953 8.94914C12.0943 9.75692 9.18125 12.3138 5.33954 12.3138C3.00844 12.3138 1.63777 10.4788 1.63777 8.80922H1.63458ZM10.7904 4.08341C10.7904 3.44419 10.2434 3.13889 9.21305 3.13889C6.12823 3.13889 3.55543 5.8071 3.3837 8.23042C7.36215 6.58943 10.7904 5.0025 10.7904 4.0866V4.08341Z" fill="#FA2935"/>
<path d="M5.33639 13.9484C2.04169 13.9484 0 11.2834 0 8.80921C0 3.94665 6.69435 0 11.064 0C13.9389 0 14.9597 1.67279 14.9597 3.10707C14.9597 5.69895 12.5555 6.9933 7.7629 8.83783C9.38163 8.7138 10.6792 8.2622 11.7064 7.46397C12.3074 6.99966 13.147 7.0092 13.7354 7.48623L13.9739 7.68022C14.3396 7.97598 14.559 8.41804 14.5781 8.88871C14.5972 9.35938 14.4096 9.81415 14.0661 10.1385C12.5555 11.5601 9.41025 13.9484 5.33321 13.9484H5.33639Z" fill="#FA2935"/>
</svg>
