<svg width="129" height="107" viewBox="0 0 129 107" fill="none" xmlns="http://www.w3.org/2000/svg">
<path d="M41.7734 65.0463L5.44281 42.2133H50.353L64.3037 5.08061L78.2544 42.2133H123.172L86.834 65.0463L100.756 102.101L64.3037 79.1969L27.8513 102.101L41.7734 65.0463Z" fill="#FA2935"/>
<path d="M64.3037 10.1672L76.9152 43.7339H117.729L84.7142 64.4798L97.3257 98.0465L64.3108 77.3006L31.296 98.0465L43.9075 64.4798L10.8928 43.7339H51.7065L64.318 10.1672M64.3037 0L60.8231 9.26081L49.0137 40.6987H0L8.68698 46.1609L39.6536 65.6188L27.8084 97.1401L24.4138 106.168L33.4803 100.468L64.3037 81.1052L95.127 100.468L104.194 106.168L100.799 97.1401L88.9538 65.6188L119.92 46.1609L128.607 40.6987H79.5936L67.7842 9.26081L64.3037 0Z" fill="#B5B5B5"/>
</svg>
