<svg width="21" height="14" viewBox="0 0 21 14" fill="none" xmlns="http://www.w3.org/2000/svg">
<path d="M9.14016 10.7872C9.14016 8.81227 14.2826 6.36351 14.2826 4.86245C14.2826 3.80662 13.4239 3.44407 12.4635 3.44407C9.99562 3.44407 8.555 5.47305 6.4974 5.47305C6.36065 5.47305 6.25888 5.44442 6.11895 5.44442C4.81506 6.80556 2.96417 8.11262 1.83201 8.94902L1.62531 8.75503C3.20269 7.61333 4.64332 6.33488 5.43202 5.22181C4.60834 4.8052 3.99139 4.08011 3.99139 3.52357C3.99139 2.66173 5.12355 1.63135 6.35747 1.63135C7.0444 1.63135 7.76312 1.90803 7.76312 2.68718C7.76312 3.38365 7.24792 4.18824 6.56417 4.99601C6.70092 5.02464 6.83768 5.05325 6.97443 5.05325C8.75854 5.05325 10.3359 1.63135 13.7992 1.63135C15.9935 1.63135 17.2275 2.57587 17.2275 3.99425C17.2275 6.63701 10.4377 8.36069 10.4377 10.5868C10.4377 11.1434 10.8829 11.6427 12.3585 11.6427C15.8218 11.6427 18.3596 8.99991 18.7698 8.75185L18.9766 8.94585C18.5663 9.30839 15.4783 12.3105 11.6366 12.3105C10.5744 12.3105 9.13379 11.8367 9.13379 10.7808L9.14016 10.7872ZM5.77867 4.58259C5.9504 4.27729 6.01718 3.9688 6.01718 3.69212C6.01718 2.99565 5.67372 2.52499 5.29845 2.52499C5.22849 2.52499 5.12672 2.55361 5.05675 2.60768C4.88502 2.71898 4.85003 2.85891 4.85003 3.05291C4.85003 3.49814 5.22849 4.16598 5.77549 4.58259H5.77867Z" fill="#FA2935"/>
<path d="M11.6431 13.9484C9.58866 13.9484 7.5088 12.8608 7.5088 10.7873C7.5088 8.95231 9.25792 7.53711 10.9498 6.16644C11.3378 5.85159 11.8498 5.43817 12.225 5.08835C11.4554 5.15513 10.7717 5.53039 9.98937 5.95972C9.07664 6.4622 8.04942 7.0251 6.77734 7.09825C5.60702 8.21132 4.23318 9.21945 3.19324 9.97952L2.80843 10.2626C2.17239 10.73 1.29147 10.6792 0.719026 10.1354L0.512324 9.94136C0.15932 9.60744 -0.0283247 9.13358 0.00347743 8.64701C0.0352796 8.16362 0.280152 7.7152 0.674499 7.42898C1.6222 6.74206 2.45861 6.04877 3.10737 5.41273C2.67168 4.87845 2.36638 4.23604 2.36638 3.52368C2.36638 1.67915 4.27133 0 6.36391 0C7.74731 0 8.80951 0.661481 9.21976 1.69505C10.3615 0.833213 11.8307 0 13.8056 0C17.3039 0 18.8685 2.00672 18.8685 3.99754C18.8685 6.29047 16.5342 7.71839 14.4735 8.97776C14.0219 9.25444 13.4017 9.63288 12.8993 9.98906C14.9918 9.77917 16.6551 8.38941 17.3993 7.76608C17.6473 7.55937 17.8318 7.41944 17.9304 7.35902C18.56 6.97739 19.3646 7.06326 19.8989 7.56891L20.1056 7.76291C20.4396 8.07775 20.624 8.51981 20.6176 8.97776C20.6081 9.43571 20.4078 9.87139 20.0643 10.1735L19.9912 10.2371C17.3198 12.6636 14.4353 13.9453 11.6462 13.9453L11.6431 13.9484Z" fill="#FA2935"/>
</svg>
