<svg width="121" height="84" viewBox="0 0 121 84" fill="none" xmlns="http://www.w3.org/2000/svg">
<path d="M13.224 83.9848C12.5421 83.9848 11.8602 83.7006 11.353 83.2033C11.1784 83.0323 11.1162 82.7859 11.1903 82.5594C11.7191 80.9697 12.9943 75.4569 12.9584 73.5208C12.4512 74.1114 11.7574 75.1549 11.4703 75.6944L10.1568 78.1656C9.695 79.0359 8.80019 79.5332 7.56804 79.6065C7.30725 79.622 7.03211 79.6576 6.73783 79.6953C6.29999 79.7508 5.8478 79.8108 5.38126 79.8108C4.78074 79.8108 4.26395 79.7108 3.80458 79.5021C1.53407 78.4786 -0.0306474 76.1141 0.00045548 73.754C0.0124181 72.8725 0.19425 72.0754 0.37369 71.305C0.445466 70.9964 0.519635 70.6767 0.579448 70.3592C0.818701 69.1003 1.09145 68.0724 1.44315 67.1243C1.75418 66.2806 2.54372 65.7345 3.45049 65.7345C3.52705 65.7345 3.60361 65.7389 3.68256 65.7456C4.35008 65.8122 4.92429 65.9965 5.38605 66.1452C5.76167 66.2651 6.08467 66.3695 6.31674 66.3695C6.4268 66.3695 6.61102 66.3695 6.89573 65.941C7.21155 65.4658 7.52497 64.9751 7.82643 64.4978C8.58486 63.2989 9.36961 62.06 10.3482 60.9121C11.1162 60.0107 12.1115 59.1759 13.1666 58.2922C14.2193 57.4086 15.3079 56.4983 16.3295 55.3993L19.1646 52.3531L23.8133 47.2977C24.3469 46.716 24.8924 46.1476 25.4187 45.597C26.4978 44.4691 27.5146 43.4034 28.4836 42.22C28.7013 41.9536 28.9118 41.6871 29.1224 41.4229C30.3091 39.9265 31.5388 38.379 33.4624 37.4975C34.0151 37.2444 34.606 37.1179 35.2233 37.1179C37.8599 37.1179 40.4247 39.4447 42.2239 41.172L42.2574 41.0477C42.3794 40.5859 42.5014 40.1263 42.6234 39.6667C43.1139 37.835 43.578 36.1077 43.8795 34.276C44.1714 32.5065 44.5231 30.6193 45.339 28.7432C46.2553 26.6317 47.5425 25.8791 48.3918 25.3795C49.1335 24.9444 49.2125 24.8822 49.1191 24.4115C48.5162 21.3409 48.4923 19.1984 50.0331 16.0168C50.5164 15.0199 50.7867 14.2029 50.9088 13.3747L51.4136 9.95334C51.8897 6.73844 53.8827 2.71094 57.2681 0.963612C58.4716 0.341947 59.8903 3.20673e-05 61.2636 3.20673e-05C61.7063 3.20673e-05 62.1441 0.0355561 62.5676 0.104383C64.4553 0.412996 66.355 1.643 67.9125 3.56573C69.2547 5.22202 70.2356 7.27129 70.5371 9.04748L71.1472 12.6265C71.3577 13.8654 71.7118 14.9955 72.2286 16.0834C73.2024 18.1393 73.5541 20.2352 73.2694 22.3156L72.9201 24.8733C73.1115 25.0265 73.3196 25.1664 73.5014 25.2618C74.9681 26.0278 76.0327 27.1046 76.6644 28.459C77.2099 29.6268 77.5831 30.8124 77.8104 32.0846C78.4301 35.5637 79.0449 38.5033 79.7316 41.2231C81.5715 39.438 84.0358 37.1356 86.6987 37.1356C87.7251 37.1356 88.6964 37.4753 89.5888 38.1414C90.4621 38.7964 91.211 39.5268 91.8785 40.3772C93.5628 42.5219 95.3309 44.4602 97.2043 46.5139L97.9125 47.291L104.36 54.378C105.631 55.7745 107.011 57.0689 108.705 58.4499C111.813 60.9876 112.607 62.2798 114.524 65.4059C114.899 66.0187 115.191 66.4538 115.531 66.4538C115.608 66.4538 115.699 66.4361 115.801 66.4028C116.44 66.1918 117.124 65.972 117.837 65.8233C118.019 65.7855 118.199 65.7656 118.373 65.7656C119.302 65.7656 120.072 66.294 120.486 67.2154C121.113 68.6097 121.039 70.0772 120.919 71.3428C120.85 72.0777 120.869 72.797 120.89 73.5586C120.917 74.5133 120.943 75.4991 120.783 76.5226C120.575 77.8569 119.151 79.1047 117.895 79.5421C117.397 79.7153 116.857 79.7997 116.242 79.7997C115.794 79.7997 115.364 79.7575 114.945 79.7175C114.663 79.6909 114.395 79.6642 114.129 79.6509C112.873 79.5887 111.942 78.9804 111.44 77.8902C110.677 76.2384 109.562 74.329 108.846 73.5231C108.846 74.0204 108.901 74.7331 109.007 75.408C109.389 77.908 110.026 80.3147 110.657 82.5439C110.722 82.7703 110.65 83.0123 110.471 83.1766C109.894 83.705 109.255 83.9848 108.626 83.9848C108.533 83.9848 108.44 83.9781 108.349 83.967C108.071 83.9293 107.844 83.745 107.77 83.4941L107.528 82.6793C106.894 80.5434 106.298 78.5275 105.49 76.4937C104.923 75.0661 104.147 73.7917 103.327 72.4462C103.193 72.2264 103.059 72.0066 102.927 71.7868C102.599 71.2429 102.152 70.5013 102.004 69.6954C101.75 68.3255 101.982 67.2465 102.169 66.3783C102.413 65.2438 102.547 64.6199 101.752 63.8095C101.085 63.1301 100.291 62.5529 99.4532 62.1399L94.204 59.5533C92.8259 58.8739 91.4885 58.1812 90.2755 57.1799C88.5744 55.7723 87.5289 54.0494 86.5025 52.2132C85.3852 53.8229 84.4066 56.2541 83.7223 57.9526L81.6504 63.0791C81.6504 63.0791 81.6432 63.099 81.6385 63.1079L79.1502 68.472C77.9946 70.9609 75.1595 75.6056 71.8554 77.2286C70.317 77.9857 68.5513 78.3876 66.6014 78.4275C66.5392 78.4275 66.4794 78.4275 66.4172 78.4275C64.6802 78.4275 63.1226 77.9347 61.79 76.9622C61.4909 76.7446 61.2756 76.718 61.1416 76.718C60.7253 76.718 60.2325 77.0021 59.7109 77.3041C59.3113 77.535 58.8974 77.7748 58.4357 77.9391C57.5552 78.2544 56.6054 78.4098 55.5311 78.4098C55.0311 78.4098 54.4904 78.3765 53.8779 78.3099C51.3873 78.0346 49.2651 77.0088 47.5688 75.2637C44.6236 72.2309 43.2072 69.2691 41.5659 65.841C41.0635 64.7931 40.4773 63.5364 39.9342 62.1666L38.5178 58.592C37.8934 57.0178 36.6947 53.9894 35.4147 52.1444C33.5629 55.6702 31.8522 57.604 27.5888 59.62L22.4328 62.0578C21.5309 62.484 20.6935 63.0591 20.0068 63.7229C19.4852 64.2292 19.3106 64.782 19.4589 65.4658C20.026 68.0813 20.2556 69.5577 18.7866 71.9578L18.5665 72.3175C17.5114 74.0381 16.5161 75.6611 15.9515 77.5039L14.1188 83.5052C14.0422 83.7583 13.8102 83.9426 13.5302 83.9759C13.4321 83.987 13.3316 83.9937 13.2336 83.9937L13.224 83.9848ZM71.8865 43.8852C71.6042 44.2493 71.4367 44.4669 71.3817 44.8532L70.707 49.7088C70.585 50.588 70.6687 51.4273 70.9678 52.3509L71.1113 52.7905L72.5397 50.7235C72.9751 50.0929 73.4297 49.4935 73.9249 48.8518C73.5254 47.9548 73.1474 46.9979 72.7717 45.9433L71.9918 43.7497C71.9559 43.7963 71.9224 43.8407 71.8865 43.8852ZM48.155 48.8984C48.8225 49.7177 49.4613 50.5858 50.1503 51.6027L50.9542 52.7883L51.1289 52.1799C51.4399 51.1031 51.5093 50.1751 51.3586 49.1715L50.7365 45.0641C50.6384 44.4158 50.4829 44.2271 50.1695 43.8474C50.1288 43.7986 50.0881 43.7475 50.0451 43.6942L49.3823 45.7568C49.0354 46.8381 48.6071 47.8638 48.155 48.8962V48.8984Z" fill="#FA2935"/>
</svg>
