<svg width="15" height="14" viewBox="0 0 15 14" fill="none" xmlns="http://www.w3.org/2000/svg">
<path d="M1.63141 8.80922C1.63141 5.19332 7.18726 1.63464 11.0608 1.63464C12.8099 1.63464 13.3251 2.35655 13.3251 3.10709C13.3251 5.13606 9.82682 6.33183 3.41551 8.72653C3.58724 9.58837 4.71941 10.5075 6.80881 10.5075C9.13991 10.5075 11.1307 9.97954 12.7081 8.75516L12.9466 8.94914C12.0879 9.75692 9.17489 12.3138 5.33319 12.3138C3.00209 12.3138 1.63141 10.4788 1.63141 8.80922ZM10.7872 4.08341C10.7872 3.44419 10.2371 3.13889 9.20985 3.13889C6.12504 3.13889 3.55226 5.8071 3.38053 8.23042C7.35898 6.58943 10.7872 5.0025 10.7872 4.0866V4.08341Z" fill="#FA2935"/>
<path d="M5.33641 13.9484C2.04171 13.9484 0 11.2834 0 8.80921C0 3.94665 6.69437 0 11.064 0C13.9389 0 14.9598 1.67279 14.9598 3.10707C14.9598 5.69895 12.5555 6.9933 7.76607 8.83783C9.3848 8.7138 10.6823 8.2622 11.7095 7.46397C12.3074 6.99966 13.1502 7.0092 13.7385 7.48623L13.977 7.68022C14.3428 7.97598 14.5622 8.41804 14.5813 8.88871C14.6004 9.35938 14.4127 9.81415 14.0693 10.1385C12.5587 11.5601 9.41345 13.9484 5.33641 13.9484Z" fill="#FA2935"/>
</svg>
