<svg width="41" height="29" viewBox="0 0 41 29" fill="none" xmlns="http://www.w3.org/2000/svg">
<path d="M25.6705 4.43948V4.74478C29.2706 3.57764 32.632 1.63135 36.302 1.63135C38.0861 1.63135 39.32 2.6045 39.32 3.80026C39.32 5.13595 37.7776 5.9151 36.0635 5.9151C35.0013 5.9151 34.6928 5.6098 34.4861 5.44125L34.7246 5.2727C34.9631 5.52394 35.5483 5.66386 35.9935 5.66386C37.4692 5.66386 38.3946 5.21864 38.3946 4.29955C38.3946 3.29779 36.7472 2.62994 35.3766 2.62994C32.3586 2.62994 28.8285 4.43949 25.5338 5.71793C25.0886 7.74691 23.7147 10.5868 21.832 13.5349C22.7924 13.7289 23.8546 13.8688 24.9868 13.8688C28.3801 13.8688 32.3585 13.0897 33.2172 10.9494C32.737 11.1148 32.2918 11.2261 31.7766 11.2261C29.684 11.2261 28.9652 10.4755 28.9652 9.75362C28.9652 8.72323 29.9925 8.22394 31.2614 8.22394C32.8388 8.22394 33.6974 9.03172 33.9359 9.919C35.2398 9.39108 36.302 8.30662 36.8172 7.72147L37.0907 7.94408C36.337 8.75186 35.2398 9.86175 34.0059 10.5582C33.8692 13.7003 30.2691 15.036 26.3575 15.0932C24.5066 15.0932 22.8243 14.7593 21.3168 14.3141C16.9281 20.684 10.0684 27.3307 4.23906 27.3307C3.00513 27.3307 1.63446 26.7741 1.63446 25.0791C1.63446 21.8798 6.15992 17.0967 9.28289 17.0967C10.3451 17.0967 11.1338 17.736 11.1338 18.7091C11.1338 19.9876 9.62635 21.3233 6.84684 22.9356L6.67511 22.713C8.83447 21.4886 9.7949 20.2388 9.7949 19.5964C9.7949 19.0971 9.5214 18.6519 8.66274 18.6519C6.53518 18.6519 3.17687 20.5695 3.17687 23.7434C3.17687 24.7992 3.96556 25.3558 5.30443 25.3558C9.5214 25.3558 15.6592 19.4596 19.6027 13.7289C18.6073 13.3409 17.7168 12.9497 16.8931 12.5904C16.1045 13.6462 15.0073 14.4826 13.6016 14.4826C12.7112 14.4826 11.8875 14.066 11.8875 13.2296C11.8875 11.8653 13.0546 11.1434 14.4603 11.1434C15.0772 11.1434 15.9359 11.4487 16.9281 11.8653C17.0999 11.6427 17.2366 11.4201 17.3734 11.1688L17.6469 11.2801C17.5451 11.5027 17.4052 11.7794 17.2684 12.002C18.0921 12.3646 19.0175 12.724 20.0447 13.0579C21.6921 10.6377 22.8561 8.27482 23.2695 6.46528C22.2741 6.77058 21.2818 6.93913 20.3532 6.93913C17.6437 6.93913 16.0663 5.93736 16.0663 4.77022C16.0663 2.62994 19.5295 1.62817 21.3136 1.62817C24.2617 1.62817 25.6674 2.43594 25.6674 4.4363L25.6705 4.43948ZM12.5045 12.5045C12.5045 13.1437 13.2232 13.4777 14.1836 13.4777C15.144 13.4777 15.8628 13.0324 16.4797 12.4218C15.4175 12.0052 14.5589 11.7254 13.7702 11.7254C12.9815 11.7254 12.5013 12.0879 12.5013 12.5045H12.5045ZM17.7168 3.91157C17.7168 5.07871 18.9857 5.63524 20.8366 5.63524C21.7271 5.63524 22.6207 5.52394 23.4762 5.35857V5.10733C23.5462 3.60626 22.4808 2.4105 20.1847 2.4105C19.0525 2.4105 17.7168 2.99248 17.7168 3.91157ZM30.6094 9.30522C30.6094 9.5819 31.0197 10.2243 32.4603 10.2243C32.7688 10.2243 33.0773 10.1671 33.3508 10.113C33.3508 8.94585 32.3554 8.58331 31.6016 8.58331C30.9847 8.58331 30.6063 8.88861 30.6063 9.30839L30.6094 9.30522Z" fill="#FA2935"/>
<path d="M4.23922 28.9622C1.70459 28.9622 0 27.4007 0 25.076C0 20.9417 5.2887 15.459 9.27987 15.459C11.2675 15.459 12.7654 16.8551 12.7654 18.706C12.7654 18.935 12.7431 19.1576 12.6986 19.3739C13.9548 18.1813 15.2269 16.7852 16.4449 15.2555C15.5767 15.8184 14.6195 16.111 13.6018 16.111C11.6619 16.111 10.2562 14.8961 10.2562 13.2265C10.2562 11.0703 12.0244 9.50885 14.4604 9.50885C15.0392 9.50885 15.6594 9.65196 16.3559 9.89366C16.8043 9.53747 17.4276 9.42935 17.9873 9.65832L18.2608 9.76963C18.6742 9.93818 19.0018 10.2657 19.164 10.6824C19.2117 10.8032 19.2435 10.9304 19.2626 11.0576C19.3007 11.0735 19.3389 11.0862 19.3771 11.099C19.9241 10.2212 20.3979 9.36574 20.7764 8.56751C20.6364 8.57387 20.4965 8.57705 20.3566 8.57705C16.2668 8.57705 14.4382 6.66574 14.4382 4.77351C14.4382 1.51697 18.5438 0 21.317 0C23.4986 0 26.0142 0.492935 26.9396 2.56008C27.3721 2.3947 27.8046 2.22297 28.2308 2.05442C30.7781 1.04311 33.4114 0 36.3054 0C38.9577 0 40.9548 1.63463 40.9548 3.80036C40.9548 5.28234 39.9976 6.48446 38.4902 7.10143C38.6237 7.32086 38.7032 7.5721 38.7223 7.83288C38.7541 8.28447 38.5951 8.7297 38.2866 9.06044C37.5584 9.83959 36.617 10.7841 35.5262 11.5346C34.8647 14.6894 31.4619 16.6548 26.3831 16.7279C24.9456 16.7279 23.505 16.5499 21.9976 16.1873C17.4085 22.5318 10.5392 28.9654 4.24241 28.9654L4.23922 28.9622ZM4.81167 23.6704C4.9198 23.699 5.12014 23.7276 5.39046 23.7212L5.38092 23.7085C5.14241 23.4 5.02474 23.0216 5.04382 22.64C4.90389 22.9548 4.82121 23.3015 4.81167 23.6704ZM24.5258 12.2248C25.9855 12.282 27.3149 12.1421 28.4057 11.929C27.4103 11.1308 27.3308 10.0622 27.3308 9.74737C27.3308 8.17316 28.5456 6.58623 31.2615 6.58623C32.54 6.58623 33.6562 7.00602 34.4449 7.73111C34.5721 7.63252 34.7025 7.52439 34.8297 7.40991C34.2032 7.25726 33.7993 6.99012 33.4813 6.72616C33.087 6.40178 32.8516 5.89612 32.8707 5.38729C32.8834 5.10743 32.9598 4.83393 33.0965 4.59541C31.5668 4.99294 29.9068 5.68305 28.2785 6.36043C27.8174 6.55125 27.3594 6.74206 26.9015 6.92651C26.4499 8.44348 25.6326 10.2562 24.5227 12.2216L24.5258 12.2248Z" fill="#FA2935"/>
</svg>
