<svg width="18" height="14" viewBox="0 0 18 14" fill="none" xmlns="http://www.w3.org/2000/svg">
<path d="M2.59191 10.9495C2.59191 9.91911 4.6495 8.64066 5.91841 8.64066C7.59756 8.64066 7.59755 10.253 8.69473 11.0322C9.51841 10.5583 10.5456 9.64243 10.5456 8.78059C10.5456 6.97105 8.38625 6.13783 6.39544 5.52723C4.98978 6.55762 3.27566 7.72476 1.83502 8.94914L1.6283 8.75516C3.03395 7.47671 4.64634 6.36363 5.74352 5.30462C4.85306 4.94207 4.1661 4.49684 4.1661 3.69224C4.1661 2.35655 5.60676 1.63464 7.25094 1.63464C8.48486 1.63464 9.06683 2.13394 9.06683 2.80179C9.06683 3.38695 8.14138 4.22016 6.87247 5.16469C9.27354 6.13783 13.4905 6.3032 13.4905 8.14137C13.4905 9.08589 11.6746 10.5043 9.617 11.3661C11.5728 11.5887 14.8294 9.72512 15.7898 8.75197L15.9965 8.94596C15.5863 9.30851 12.2598 12.3106 8.89827 12.3106C8.28131 12.3106 7.83607 12.1707 7.45762 11.9767C6.59896 12.1707 5.50179 12.3106 4.71309 12.3106C3.10072 12.3106 2.58554 11.7255 2.58554 10.9463L2.59191 10.9495ZM6.67212 11.3661C6.02017 10.587 5.57496 9.58519 4.82125 9.58519C4.1693 9.58519 3.65728 9.94774 3.65728 10.3643C3.65728 10.9209 4.8912 11.3375 6.6753 11.3661H6.67212ZM6.1919 4.83077C6.63713 4.30285 7.0156 3.74631 7.0156 3.2184C7.0156 2.69048 6.60535 2.4138 6.09015 2.4138C5.50817 2.4138 5.23147 2.88765 5.23147 3.44419C5.23147 4.05479 5.60992 4.50002 6.1919 4.83394V4.83077Z" fill="#FA2935"/>
<path d="M8.90147 13.9452C8.32585 13.9452 7.79477 13.8594 7.2923 13.6813C6.41456 13.8467 5.45092 13.9452 4.71947 13.9452C1.14173 13.9452 0.960472 11.4488 0.960472 10.9495C0.960472 10.7523 0.985908 10.5551 1.03361 10.3675C0.922303 10.3039 0.814179 10.2244 0.718773 10.1354L0.512051 9.94135C0.181308 9.62969 -0.00313976 9.194 4.04527e-05 8.73923C0.00322067 8.28446 0.197231 7.85513 0.534334 7.54665C1.25306 6.89152 1.99723 6.3 2.71596 5.72756C2.84635 5.62262 2.97673 5.52086 3.10712 5.41591C2.7732 4.97386 2.54103 4.41096 2.54103 3.69223C2.54103 1.52014 4.48095 0 7.26046 0C9.64244 0 10.711 1.40566 10.711 2.80177C10.711 3.36785 10.5107 3.88304 10.1354 4.39505C12.1453 4.88163 14.4796 5.50813 15.017 7.31767C15.6213 6.98693 16.3909 7.06962 16.9188 7.56573L17.1255 7.75973C17.4594 8.07457 17.6439 8.51662 17.6375 8.97457C17.628 9.4357 17.4276 9.86821 17.0842 10.1735C15.4686 11.5982 12.3043 13.9452 8.90783 13.9452H8.90147ZM8.59618 8.2622C8.70748 8.39577 8.80924 8.52934 8.89828 8.65973C8.86012 8.52934 8.75837 8.39895 8.59618 8.2622Z" fill="#FA2935"/>
</svg>
