<svg width="26" height="24" viewBox="0 0 26 24" fill="none" xmlns="http://www.w3.org/2000/svg">
<path d="M1.63148 19.3231C1.63148 16.1811 6.80886 11.3122 10.6855 11.3122C12.4696 11.3122 13.1534 12.1454 13.2583 13.2585C20.8368 3.55245 21.0435 1.63159 21.7273 1.63159C21.899 1.63159 22.2774 1.71428 22.5159 1.71428C23.1679 1.71428 23.6131 1.63159 23.8517 1.63159C24.0234 1.63159 24.0902 1.63159 24.0902 1.79696C24.0902 2.32488 19.393 6.88849 14.0757 14.0058C10.5424 18.7348 10.2021 19.4313 10.2021 20.2072C10.2021 20.5698 10.5106 20.9037 11.2643 20.9037C13.7672 20.9037 16.34 18.7062 16.6834 18.4295L16.9219 18.6235C16.5117 18.986 13.4237 21.9882 9.55023 21.9882C8.48803 21.9882 7.76609 21.5429 7.76609 20.9578C6.94241 21.6542 5.81027 21.9882 4.6813 21.9882C2.58871 21.9882 1.6283 20.7638 1.6283 19.3168L1.63148 19.3231ZM5.60993 19.9083C8.38626 19.9083 12.2979 16.0412 12.2979 13.7609C12.2979 12.8991 11.681 12.4252 10.6855 12.4252C8.28448 12.4252 3.82898 15.5132 3.82898 18.2387C3.82898 19.0465 4.17248 19.9083 5.61312 19.9083H5.60993Z" fill="#FA2935"/>
<path d="M9.55335 23.6258C8.66925 23.6258 7.95055 23.4159 7.40355 23.0852C6.58306 23.4382 5.65442 23.6258 4.68445 23.6258C1.92721 23.6258 0 21.8576 0 19.323C0 15.1792 6.09011 9.68059 10.6855 9.68059C11.7763 9.68059 12.6922 9.93818 13.3887 10.4152C16.8361 5.89295 18.4134 3.38693 19.2212 2.10531C20.0481 0.791877 20.5474 0 21.7272 0C21.8608 0 22.0675 0.0222609 22.2901 0.0540631C22.3728 0.066784 22.4587 0.082687 22.5318 0.0858672C22.853 0.0858672 23.1265 0.0572472 23.3333 0.0381659C23.5495 0.0159044 23.7212 0.00318332 23.8548 0.00318332C25.1428 0.00318332 25.728 0.934983 25.728 1.80318C25.728 2.67138 25.3463 3.06891 23.2346 5.46362C21.3456 7.6039 18.4898 10.8414 15.3891 14.9915C14.5527 16.111 13.2329 17.8792 12.4601 19.059C13.4269 18.7474 14.5113 18.1145 15.6021 17.2177C16.2032 16.7248 17.1159 16.6802 17.717 17.17L17.9555 17.364C18.3276 17.6661 18.5502 18.1177 18.5597 18.6011C18.5693 19.0813 18.3658 19.5424 18.0064 19.8605L17.9364 19.9241C15.2651 22.3506 12.3678 23.6322 9.55653 23.6322L9.55335 23.6258ZM5.46041 18.2672C5.50175 18.2704 5.54948 18.2735 5.60991 18.2735C7.42581 18.2735 10.2308 15.4749 10.6187 14.0566C8.88871 14.1202 5.46041 16.658 5.46041 18.2354C5.46041 18.2449 5.46041 18.2576 5.46041 18.2672Z" fill="#FA2935"/>
</svg>
