<svg width="17" height="19" viewBox="0 0 17 19" fill="none" xmlns="http://www.w3.org/2000/svg">
<path d="M4.44626 14.053C4.44626 12.7459 5.40668 11.0477 6.74237 9.26992C6.9141 9.04731 7.08583 8.8247 7.22258 8.63071C6.02046 9.60385 3.8961 11.4388 1.8385 13.1371L1.63177 12.9431C5.09503 9.99502 8.42155 6.1565 9.07349 6.1565C9.2802 6.1565 9.28019 6.23918 9.69043 6.23918C9.92895 6.23918 10.2724 6.1565 10.4441 6.1565C11.3696 6.1565 6.60246 9.46709 6.60246 12.6378C6.60246 13.9162 7.73462 14.8639 9.31201 14.8639C11.2996 14.8639 12.6385 14.1675 14.2859 12.9463L14.4926 13.1403C13.4304 14.0021 10.8926 16.5049 7.1876 16.5049C5.4035 16.5049 4.44308 15.5032 4.44308 14.0562L4.44626 14.053ZM10.4473 3.37062C10.6858 2.17486 11.6813 2.95401 12.4032 2.87133C13.2618 2.76002 13.5003 2.62009 14.0155 1.89818C14.1173 1.70419 14.1523 1.59288 14.254 1.64694C14.941 2.20348 13.6021 4.31833 12.1615 4.45508C11.3028 4.53776 10.3106 4.00985 10.4473 3.37062Z" fill="#FA2935"/>
<path d="M7.19082 18.1331C4.71343 18.1331 3.00249 16.6639 2.83075 14.4345C2.19471 14.9148 1.30106 14.8702 0.719085 14.3201L0.512363 14.1261C0.17526 13.808 -0.00918812 13.3596 0.000352535 12.8953C0.0130734 12.431 0.219803 11.9953 0.572807 11.6964C2.12475 10.3734 3.68942 8.831 4.94242 7.59071C7.31486 5.24689 8.03993 4.52816 9.05124 4.51862C8.81272 4.06067 8.73643 3.54548 8.84137 3.03982C9.02583 2.13346 9.50285 1.65961 9.87176 1.41791C10.6923 0.886814 11.57 1.08399 12.0438 1.18893C12.1202 1.20484 12.1933 1.2271 12.2664 1.23665C12.3746 1.22074 12.4445 1.20802 12.4859 1.19847C12.5113 1.16667 12.5527 1.11579 12.6163 1.03311C12.7721 0.740527 13.0678 0.266675 13.6975 0.0695013C14.1173 -0.0608876 14.6421 -0.00364599 15.0269 0.206248C15.1159 0.253952 15.1986 0.311195 15.2781 0.374799C15.9969 0.956779 16.2449 1.9172 15.9364 2.93805C15.5103 4.35007 14.0378 5.91156 12.3141 6.07694C12.276 6.08012 12.2378 6.0833 12.2028 6.08648C12.2887 6.92287 11.6686 7.58118 10.9212 8.37941C9.98304 9.378 8.23712 11.2384 8.23712 12.6282C8.23712 13.0162 8.77776 13.2197 9.31204 13.2197C10.8767 13.2197 11.8848 12.6822 13.3096 11.6232C13.9456 11.1494 14.8297 11.2034 15.4053 11.7473L15.612 11.9412C15.9555 12.2656 16.1399 12.7204 16.1209 13.1911C16.1018 13.6618 15.8824 14.1006 15.5166 14.3964C15.4181 14.4759 15.3067 14.5713 15.1795 14.6794C13.8597 15.7989 11.1152 18.1268 7.18445 18.1268L7.19082 18.1331Z" fill="#FA2935"/>
</svg>
