<svg width="22" height="14" viewBox="0 0 22 14" fill="none" xmlns="http://www.w3.org/2000/svg">
<path d="M2.93995 10.7555C2.93995 9.86505 3.11167 8.80923 3.38517 7.77883C2.86997 8.16682 2.32298 8.55798 1.84277 8.94597L1.63605 8.75198C2.25301 8.25269 2.93994 7.66753 3.59189 7.08237C4.55231 4.29968 6.47317 1.63147 8.83925 1.63147C9.28448 1.63147 9.52617 1.82547 9.52617 2.13077C9.52617 3.24384 7.53854 4.99615 5.34101 6.5799C5.13429 7.07919 4.89577 7.66435 4.89577 8.4435C4.89577 9.86188 5.68447 10.3357 6.57493 10.3357C9.65975 10.3357 12.8495 7.66752 14.1184 5.71805C12.1308 5.80074 10.4834 5.38413 10.4834 4.13113C10.4834 2.79543 12.3343 1.6283 13.9817 1.6283C15.1138 1.6283 16.0393 2.15621 16.0393 3.26929C16.0393 3.71452 15.8675 4.24243 15.559 4.85621C16.9997 4.91346 18.6121 4.77353 19.776 4.41099L19.811 4.68766C18.5421 5.13289 16.723 5.52088 15.0439 5.68943C13.0562 8.60887 8.42583 12.3106 4.79084 12.3106C3.72864 12.3106 2.93995 11.6428 2.93995 10.7523V10.7555ZM14.5986 4.80215C14.6686 4.57953 14.7004 4.43961 14.7004 4.27424C14.7004 3.27247 13.6732 2.69049 12.8145 2.69049C12.1976 2.69049 11.6474 2.99578 11.6474 3.44101C11.6474 4.13748 12.9513 4.60815 14.5954 4.80215H14.5986Z" fill="#FA2935"/>
<path d="M4.79077 13.9452C2.83812 13.9452 1.30525 12.5428 1.30525 10.7555C1.30525 10.6664 1.30525 10.5806 1.30843 10.4915C1.09536 10.4184 0.891807 10.2975 0.716895 10.1322L0.510193 9.93818C0.166729 9.6138 -0.0177351 9.15902 0.0013462 8.68835C0.0204275 8.21767 0.23987 7.77881 0.605595 7.48305C1.11443 7.06962 1.66778 6.60213 2.19252 6.13782C3.34376 3.09753 5.63988 0 8.83281 0C9.77098 0 10.4325 0.407064 10.8046 0.969962C11.7364 0.359361 12.8876 0 13.9784 0C16.1091 0 17.6102 1.29435 17.6675 3.16114C18.2844 3.09753 18.8473 2.99258 19.2894 2.85266C19.7505 2.70637 20.253 2.77633 20.6569 3.04029C21.0639 3.30106 21.3311 3.73039 21.3915 4.2106L21.4265 4.48728C21.5219 5.25053 21.0703 5.97563 20.3452 6.23004C19.1304 6.65619 17.4957 7.02191 15.9374 7.22863C13.6858 10.1385 8.98865 13.9421 4.78759 13.9421L4.79077 13.9452ZM6.54624 8.70425C6.54624 8.70425 6.56533 8.70425 6.57487 8.70425C8.00597 8.70425 9.56744 7.89011 10.8141 6.88834C10.3879 6.70707 10.0222 6.47492 9.72645 6.19188C9.51656 5.99153 9.34483 5.76891 9.20808 5.53039C8.58157 6.13463 7.7579 6.82475 6.68298 7.62298C6.58758 7.88694 6.52397 8.14772 6.52397 8.44666C6.52397 8.56432 6.53351 8.64701 6.54305 8.70425H6.54624Z" fill="#FA2935"/>
</svg>
