<svg width="19" height="14" viewBox="0 0 19 14" fill="none" xmlns="http://www.w3.org/2000/svg">
<path d="M1.6313 9.64256C1.6313 6.41782 6.91363 1.63159 10.6854 1.63159C12.5712 1.63159 13.2582 2.57612 13.2582 3.8005C14.3204 2.91004 14.1168 1.79697 14.9373 1.79697C15.9645 1.79697 16.1712 1.57435 16.4447 1.71428C17.1317 1.99096 13.7002 4.99626 11.1974 8.36093C10.6472 9.08284 10.167 9.94786 10.167 10.5298C10.167 10.8924 10.5105 11.2263 11.2292 11.2263C13.732 11.2263 16.3398 9.0574 16.6801 8.7521L16.8868 8.94609C16.4765 9.30864 13.3885 12.3108 9.55002 12.3108C8.48783 12.3108 7.76593 11.8369 7.76593 11.2549C6.94225 11.9768 5.77829 12.3108 4.68111 12.3108C2.62351 12.3108 1.62811 11.0864 1.62811 9.63939L1.6313 9.64256ZM5.7465 10.0305C8.52283 10.0305 12.2946 6.30334 12.2946 3.9945C12.2946 3.13266 11.6426 2.68743 10.6472 2.68743C8.24614 2.68743 3.95922 5.63549 3.95922 8.36093C3.95922 9.16871 4.30268 10.0305 5.74331 10.0305H5.7465Z" fill="#FA2935"/>
<path d="M9.55337 13.9452C8.71697 13.9452 7.97599 13.7417 7.40037 13.3919C6.5767 13.7513 5.64488 13.9452 4.68445 13.9452C1.92721 13.9452 0 12.177 0 9.64241C0 5.49859 6.09011 0 10.6855 0C11.8717 0 12.7654 0.286218 13.4173 0.74417C13.764 0.419788 14.2505 0.165368 14.9375 0.165368C15.3032 0.165368 15.5067 0.130388 15.6848 0.098586C16.0029 0.0445223 16.534 -0.0508866 17.1382 0.235333C17.6343 0.464309 18 0.912715 18.1241 1.44381C18.388 2.59187 17.6725 3.38056 15.7675 5.48905C14.7785 6.58304 13.5477 7.94417 12.5141 9.33393C12.511 9.34029 12.5046 9.34666 12.5014 9.34984C13.853 8.89825 15.1506 7.93146 15.6053 7.53075C16.2382 6.96467 17.1954 6.98058 17.8124 7.56256L18.0191 7.75654C18.353 8.07139 18.5375 8.51344 18.5311 8.97139C18.5216 9.42934 18.3212 9.86503 17.9778 10.1672L17.9046 10.2308C15.2332 12.6573 12.3488 13.9389 9.55973 13.9389L9.55337 13.9452ZM5.59399 8.39259C5.63215 8.39577 5.68305 8.39894 5.74347 8.39894C7.59754 8.39894 10.2244 5.75619 10.6124 4.32191C8.86326 4.35372 5.59399 6.74842 5.59399 8.36397C5.59399 8.37351 5.59399 8.38623 5.59399 8.39577V8.39259Z" fill="#FA2935"/>
</svg>
