<svg width="21" height="14" viewBox="0 0 21 14" fill="none" xmlns="http://www.w3.org/2000/svg">
<path d="M1.63147 9.58532C1.63147 6.10934 6.50038 1.63159 10.6506 1.63159C11.6778 1.63159 12.6732 1.85421 13.2552 2.49344C13.5986 2.55068 14.1138 2.8846 14.1138 3.30121H13.9421C13.8053 2.9959 13.4269 2.85598 13.1184 2.85598C12.7749 2.85598 12.2629 3.0786 12.2629 3.60651C12.2629 4.2203 13.0516 4.91358 14.5272 4.91358C15.4527 4.91358 17.4085 4.74502 18.4008 4.41428V4.69097C17.682 5.05351 15.0742 5.58143 13.7386 5.58143C13.7386 8.00157 9.58839 12.3139 5.30145 12.3139C2.90039 12.3426 1.63147 11.2836 1.63147 9.5885V9.58532ZM6.29368 10.2277C10.1004 10.2277 12.6032 7.19698 13.1184 5.72136C12.4315 6.47189 10.9241 7.16835 9.5534 7.16835C8.18273 7.16835 7.15232 6.50051 7.15232 5.30475C7.15232 4.30298 7.80427 3.1899 8.76469 2.5793C6.80886 3.13584 3.79401 5.72136 3.79401 8.08744C3.79401 9.47719 4.85622 10.2309 6.29686 10.2309L6.29368 10.2277ZM10.3071 5.99803C11.2326 5.99803 12.193 5.85811 12.6382 5.49556C11.9195 5.46694 10.8541 4.79909 10.8541 3.88319C10.8541 2.96729 11.5728 2.49344 12.2947 2.49344C11.9163 2.35351 11.541 2.29944 11.2325 2.29944C9.82689 2.29944 8.62476 3.63514 8.62476 4.69097C8.62476 5.49556 9.3117 5.99803 10.3039 5.99803H10.3071Z" fill="#FA2935"/>
<path d="M5.19329 13.9452C3.04982 13.9452 1.8318 13.1915 1.18621 12.5555C0.410242 11.7891 0 10.7619 0 9.58835C0 5.10743 5.67349 0 10.6505 0C12.088 0 13.271 0.362541 14.1011 1.04947C14.9566 1.40247 15.7071 2.20071 15.7452 3.21838C16.5371 3.14841 17.4117 3.02438 17.8824 2.86537C18.3785 2.7 18.9287 2.78269 19.3548 3.08799C19.781 3.39329 20.0354 3.88622 20.0354 4.41413V4.69082C20.0354 5.30778 19.6855 5.87386 19.1354 6.15054C18.3912 6.52262 16.588 6.93605 15.0869 7.11732C13.9484 10.3484 9.59788 13.9452 5.30459 13.9452C5.26961 13.9452 5.23146 13.9452 5.19647 13.9452H5.19329ZM5.87704 6.81839C5.59719 7.26362 5.42544 7.70248 5.42544 8.08411C5.42544 8.24948 5.42546 8.59294 6.29684 8.59294C6.76751 8.59294 7.21591 8.52934 7.63888 8.42121C6.85336 8.07775 6.23957 7.52121 5.88021 6.81839H5.87704Z" fill="#FA2935"/>
</svg>
