<svg width="23" height="14" viewBox="0 0 23 14" fill="none" xmlns="http://www.w3.org/2000/svg">
<path d="M11.6626 10.87C11.6626 9.28625 15.4693 6.4495 15.4693 4.1661C15.4693 3.41557 14.9191 2.99896 13.7902 2.99896C10.8739 2.99896 8.61278 5.39048 7.00041 7.58801C4.59935 10.7587 5.21631 11.9831 4.49758 11.9831C4.05235 11.9831 3.81064 11.8718 3.19368 11.8718C2.67849 11.8718 2.30323 11.9831 1.78803 11.9831C0.554108 11.9831 8.54281 5.44773 8.54281 3.41557C6.72691 4.66857 4.56435 6.94879 2.0965 8.94914L1.8898 8.75516C5.35306 5.80709 8.67956 1.96857 9.29652 1.96857C9.70677 1.96857 9.63999 2.05126 10.1552 2.05126C10.5336 2.05126 10.8739 1.96857 11.1506 1.96857C11.7326 1.96857 10.7054 2.88765 10.3269 3.35833C11.2523 2.94172 13.9969 1.63464 16.328 1.63464C17.5619 1.63464 18.6941 2.1085 18.6941 3.13571C18.6941 5.082 13.9269 8.39261 13.9269 10.4788C13.9269 10.9527 14.4739 11.2294 15.2308 11.2294C17.7336 11.2294 20.2714 9.00321 20.6499 8.75516L20.8884 8.94914C20.4782 9.31169 17.3902 12.3138 13.5167 12.3138C12.4545 12.3138 11.6658 11.8686 11.6658 10.8668L11.6626 10.87Z" fill="#FA2935"/>
<path d="M13.5136 13.9484C11.4305 13.9484 10.0281 12.7113 10.0281 10.87C10.0281 9.57563 10.9567 8.41804 12.0316 7.07917C12.6072 6.36044 13.4214 5.34912 13.7203 4.6304C11.9934 4.6622 10.2252 5.947 8.31393 8.5516C7.07365 10.1926 6.75879 11.1848 6.57116 11.7795C6.41215 12.282 5.99237 13.6145 4.49449 13.6145C4.17011 13.6145 3.91887 13.5763 3.71852 13.5477C3.53724 13.5223 3.40685 13.5032 3.19377 13.5032C3.00932 13.5032 2.85349 13.5255 2.69448 13.5477C2.4496 13.5795 2.14749 13.6177 1.78812 13.6177C1.05667 13.6177 0.433352 13.2138 0.159853 12.5619C-0.18679 11.735 0.0167327 11.118 0.904013 10.0749L0.767266 9.94772C0.430163 9.6297 0.242535 9.18129 0.255256 8.71698C0.267977 8.25266 0.474687 7.81698 0.827691 7.51485C2.41144 6.16644 3.99519 4.59859 5.26728 3.33604C7.59202 1.03357 8.29484 0.337102 9.29343 0.337102C9.63371 0.337102 9.84042 0.375268 10.009 0.410251C10.1998 0.445233 10.362 0.403885 10.5242 0.384804C10.75 0.356182 10.9599 0.333919 11.1475 0.333919C11.6118 0.333919 12.0348 0.489751 12.3528 0.76325C13.5581 0.353002 14.9701 0 16.3249 0C18.6783 0 20.3224 1.28798 20.3224 3.13569C20.3224 4.71626 18.9931 6.20143 17.5843 7.77563C17.1899 8.21768 16.5952 8.87917 16.1532 9.46115C17.527 9.08588 18.8977 8.03323 19.4097 7.63888C19.5623 7.52121 19.6768 7.43853 19.7405 7.394C20.3352 6.99966 21.1175 7.03782 21.6708 7.48623L21.9093 7.68022C22.2814 7.98234 22.504 8.43394 22.5136 8.91733C22.5231 9.39754 22.3196 9.85867 21.9602 10.1767L21.8903 10.2403C19.2189 12.6668 16.3217 13.9484 13.5104 13.9484H13.5136Z" fill="#FA2935"/>
</svg>
