<svg width="148" height="122" viewBox="0 0 148 122" fill="none" xmlns="http://www.w3.org/2000/svg">
<path d="M73.6282 90.6819L31.8907 116.902L47.8323 74.474L6.23077 48.3314H57.6508L73.6282 5.81995L89.5985 48.3314H141.026L99.4242 74.474L115.366 116.902L73.6282 90.6819Z" fill="#FA2935"/>
<path d="M73.628 11.6401L88.0657 50.0728H134.795L96.989 73.8241L111.427 112.257L73.6209 88.5054L35.815 112.257L50.2527 73.8241L12.4468 50.0728H59.176L73.6137 11.6401M73.628 0L69.6462 10.6025L56.1252 46.5963H0L9.94741 52.8457L45.4043 75.1241L31.8403 111.219L27.9587 121.553L38.343 115.03L73.628 92.8586L108.913 115.03L119.297 121.553L115.416 111.219L101.852 75.1241L137.309 52.8457L147.256 46.5963H91.1309L77.6099 10.6025L73.628 0Z" fill="#B5B5B5"/>
</svg>
