<svg width="37" height="29" viewBox="0 0 37 29" fill="none" xmlns="http://www.w3.org/2000/svg">
<path d="M7.25732 19.5998C8.90467 19.5998 10.0686 20.6016 11.4075 21.826C15.9329 16.709 20.1181 7.58495 24.8503 3.58106H23.8549C21.8672 3.58106 20.0481 3.9436 18.7443 4.5542C18.4708 6.52912 17.2686 8.22735 15.4877 8.22735C15.0775 8.22735 14.8008 7.97612 14.8008 7.67082C14.8008 6.64043 16.0347 5.19661 18.4358 4.13759C18.5057 3.66374 18.5375 3.16445 18.5057 2.66516H18.7443C18.8142 3.08177 18.8142 3.52699 18.7792 3.9436C20.5633 3.24713 22.8595 2.74784 25.7407 2.74784H25.9824C27.0446 2.05137 28.1418 1.63477 29.3089 1.63477C30.8863 1.63477 32.3969 2.21675 33.9043 3.55244L33.6309 3.74643C32.6036 2.9959 31.6432 2.43936 30.4093 2.43936C29.6206 2.43936 28.8319 2.60473 28.1132 2.91321C32.4001 3.52382 34.5595 5.86127 34.5595 8.2528C34.5595 10.8669 32.1584 12.9818 29.2771 14.2316C31.5764 15.5101 33.0139 17.3737 33.0139 19.4344C33.0139 24.6627 26.5326 27.3341 21.0467 27.3341C15.5609 27.3341 13.1248 25.8585 11.204 24.386C9.18134 26.167 6.88206 27.3341 4.24248 27.3341C3.00855 27.3341 1.63788 26.7776 1.63788 25.0825C1.63788 21.8832 5.16792 19.603 7.2605 19.603L7.25732 19.5998ZM2.6619 23.7182C2.6619 24.8313 3.55236 25.5277 5.30148 25.5277C6.91385 25.5277 8.45626 24.6659 9.96368 23.3302C8.65979 22.2457 7.59761 21.3839 5.8135 21.3839C4.30608 21.3839 2.65872 22.3857 2.65872 23.7214L2.6619 23.7182ZM12.6064 22.9931C14.5623 24.7454 17.0651 26.5804 21.4188 26.5804C25.7725 26.5804 30.7814 24.0203 30.7814 19.32C30.7814 17.1797 29.7542 15.65 28.2785 14.6482C26.5294 15.2874 24.7453 15.6214 23.2029 15.6214C20.5633 15.6214 19.0527 15.3161 18.4358 14.6737C16.6517 17.6503 14.7658 20.6556 12.6064 22.9899V22.9931ZM16.4132 6.6118C16.4132 6.83442 16.5149 6.91711 16.6517 6.91711C17.1319 6.91711 17.8856 6.02664 18.264 4.77364C17.1001 5.33018 16.4132 6.02665 16.4132 6.60863V6.6118ZM19.0877 14.3143C19.0877 14.8136 20.5283 15.0108 22.1725 15.0108C23.6132 15.0108 25.3973 14.6482 27.0065 13.9804C25.6358 13.3698 24.0234 13.0899 22.481 13.0899C20.2867 13.0899 19.0877 13.9231 19.0877 14.3143ZM19.6379 12.7305C20.1849 12.5906 20.9068 12.5079 21.8672 12.5079C24.0966 12.5079 26.1891 12.8959 27.9033 13.5924C30.2026 12.4793 32.0885 10.727 32.0885 8.5581C32.0885 6.38919 30.1676 4.4429 26.5326 3.80049C24.0648 5.61004 21.8704 9.02877 19.6411 12.7274L19.6379 12.7305Z" fill="#FA2935"/>
<path d="M21.0435 28.9654C16.1778 28.9654 13.2583 27.7347 11.2675 26.434C9.03181 28.1131 6.6721 28.9654 4.23923 28.9654C1.80637 28.9654 0 27.4039 0 25.0792C0 20.9544 4.33464 17.9682 7.25726 17.9682C8.88553 17.9682 10.1576 18.6742 11.2166 19.5011C12.7463 17.5484 14.2823 15.1474 15.7771 12.8099C16.6802 11.3979 17.593 9.9668 18.5279 8.60249C17.6915 9.39754 16.6421 9.85867 15.4908 9.85867C14.1901 9.85867 13.1725 8.89825 13.1725 7.67068C13.1725 6.02333 14.5749 4.31555 16.8901 3.07845C16.8901 2.9735 16.8901 2.87491 16.8806 2.77633C16.8488 2.32474 17.0078 1.88269 17.3163 1.54876C17.6248 1.21802 18.0573 1.03039 18.5089 1.03039H18.7474C19.323 1.03039 19.8382 1.33251 20.1308 1.79364C21.7908 1.35795 23.594 1.13216 25.5181 1.11308C26.787 0.365725 28.0336 0 29.3121 0C31.3601 0 33.2206 0.763249 34.9888 2.32792C35.3608 2.65866 35.5644 3.14206 35.5357 3.63817C35.5135 4.0675 35.3227 4.4682 35.0078 4.75442C35.8347 5.88658 36.1909 7.13323 36.1909 8.24948C36.1909 10.5997 34.8075 12.7749 32.3205 14.435C33.8216 15.8693 34.6485 17.6057 34.6485 19.4279C34.6485 25.6198 27.6424 28.9591 21.0467 28.9591L21.0435 28.9654ZM14.9279 22.8053C16.4576 23.9629 18.423 24.9488 21.4188 24.9488C24.4145 24.9488 29.1467 23.1615 29.1467 19.323C29.1467 18.1654 28.7587 17.2304 27.9605 16.4799C26.329 16.9887 24.7007 17.2559 23.1997 17.2559C21.4029 17.2559 20.0576 17.1191 19.0463 16.817C17.8188 18.8237 16.4449 20.9385 14.9248 22.8053H14.9279ZM4.29966 23.7499C4.33782 23.7499 4.60495 23.893 5.30142 23.893C5.89294 23.893 6.51945 23.7085 7.20002 23.3332C6.77387 23.1202 6.34771 23.0152 5.81661 23.0152C4.97067 23.0152 4.32828 23.5368 4.29329 23.7212C4.29329 23.7371 4.29329 23.7467 4.29329 23.753C4.29329 23.753 4.2933 23.753 4.29648 23.753L4.29966 23.7499ZM22.694 10.8922C24.5099 10.9654 26.2463 11.2771 27.7919 11.8081C29.4711 10.8604 30.4538 9.67422 30.4538 8.55796C30.4538 7.23181 29.099 6.0933 26.946 5.55584C25.4863 6.81202 24.0647 8.75831 22.694 10.8891V10.8922ZM20.1657 5.74347C20.0576 6.13782 19.9209 6.5099 19.7587 6.85655C20.0831 6.41768 20.4075 5.98835 20.7382 5.57492C20.541 5.6258 20.3502 5.68305 20.1657 5.74347Z" fill="#FA2935"/>
</svg>
