<svg width="36" height="29" viewBox="0 0 36 29" fill="none" xmlns="http://www.w3.org/2000/svg">
<path d="M17.9904 2.66503H18.264C18.3339 3.08163 18.3339 3.52687 18.2989 3.94347C20.083 3.24701 22.3791 2.74771 25.2254 2.74771C25.4989 2.74771 25.7406 2.74771 26.0141 2.77634C27.0763 2.05443 28.1735 1.63782 29.3057 1.63782C30.883 1.63782 32.3905 2.2198 33.9011 3.55549L33.6276 3.74948C32.6004 2.99895 31.6399 2.44241 30.4028 2.44241C29.5473 2.44241 28.7555 2.63641 28.0018 2.97033C32.0152 3.69224 34.0378 5.94701 34.0378 8.25585C34.0378 12.5682 28.447 14.8484 23.5781 14.7371C21.5905 14.6544 20.0131 14.4605 18.776 14.0693C14.7625 20.522 10.4788 27.3372 4.23599 27.3372C3.00206 27.3372 1.63141 26.7806 1.63141 25.0856C1.63141 21.8863 6.15687 17.1032 9.27985 17.1032C10.342 17.1032 11.1307 17.7424 11.1307 18.7156C11.1307 19.994 9.62012 21.3297 6.84379 22.9421L6.67204 22.7195C8.83141 21.4951 9.79186 20.2453 9.79186 19.6029C9.79186 19.1036 9.51834 18.6583 8.65968 18.6583C6.53212 18.6583 3.17381 20.576 3.17381 23.7499C3.17381 24.8057 3.99748 25.4449 5.19642 25.4449C9.92858 25.4449 13.7703 19.4947 17.542 13.57C16.0346 12.7908 15.3826 11.6491 15.2459 10.2594H15.6244C15.6244 11.3438 16.2413 12.3742 17.8537 13.0421C20.1848 9.36893 22.4491 5.81026 24.882 3.64136C24.4018 3.58411 23.8866 3.58411 23.3745 3.58411C21.3869 3.58411 19.5678 3.97527 18.264 4.55725C17.9905 6.53217 16.7883 8.23041 15.0074 8.23041C14.5622 8.23041 14.2887 7.97917 14.2887 7.67387C14.2887 6.64348 15.5226 5.19966 17.9237 4.14065C17.9936 3.66679 18.0604 3.1675 17.9936 2.66821L17.9904 2.66503ZM15.8979 6.61486C15.8979 6.83747 16.0346 6.92016 16.1714 6.92016C16.6516 6.92016 17.3703 6.0297 17.7488 4.77669C16.6166 5.33323 15.8979 6.0297 15.8979 6.61168V6.61486ZM19.1544 13.4555C20.2866 13.7322 21.794 13.8721 23.648 13.8721C26.9046 13.8721 31.3283 12.371 31.3283 8.36397C31.3283 6.6403 29.7159 4.69401 26.4593 3.91485C23.8865 5.88977 21.5555 9.58836 19.1544 13.4555Z" fill="#FA2935"/>
<path d="M4.23922 28.9686C1.70458 28.9686 0 27.4071 0 25.0824C0 20.9481 5.28872 15.4654 9.27989 15.4654C10.9813 15.4654 12.3233 16.4862 12.6732 17.9428C13.5827 16.693 14.47 15.3414 15.3286 14.0025C14.3364 13.077 13.764 11.8781 13.6209 10.4184C13.5922 10.1163 13.6463 9.81415 13.7767 9.54701C13.0993 9.16539 12.6541 8.47528 12.6541 7.67068C12.6541 6.02015 14.0597 4.30919 16.3845 3.06891C16.3845 3.0053 16.3781 2.9417 16.3718 2.88445C16.3081 2.41696 16.4481 1.94311 16.7597 1.59011C17.0714 1.23392 17.5198 1.03039 17.9905 1.03039H18.264C18.8396 1.03039 19.3548 1.32933 19.6442 1.79364C21.3647 1.34205 23.2346 1.11308 25.2255 1.11308C25.3463 1.11308 25.464 1.11308 25.5785 1.11308C26.8124 0.372085 28.0622 0 29.3057 0C31.3538 0 33.211 0.76325 34.9824 2.32792C35.3545 2.65866 35.558 3.14205 35.5294 3.63816C35.5008 4.13428 35.2495 4.59541 34.8425 4.88163L34.6644 5.00884C35.3163 5.97245 35.6693 7.06962 35.6693 8.24948C35.6693 10.0272 34.9474 11.6714 33.5799 13.0071C31.3697 15.1696 27.5343 16.464 23.54 16.3622C21.9244 16.2954 20.6205 16.1587 19.5329 15.9392C15.5926 22.2488 11.0671 28.9654 4.23603 28.9654L4.23922 28.9686ZM5.04064 22.6463C4.89117 22.9834 4.80849 23.3523 4.80849 23.7467C4.79895 23.7499 4.93569 23.8103 5.19965 23.8103C5.28233 23.8103 5.36503 23.8103 5.44771 23.8007L5.38094 23.7149C5.14243 23.4064 5.02474 23.028 5.04064 22.6431V22.6463ZM21.8735 12.1898C22.4174 12.2248 23.0089 12.2407 23.6481 12.2407C25.3304 12.2407 29.6969 11.5442 29.6969 8.36715C29.6969 7.48623 28.7205 6.36361 26.841 5.72439C25.1364 7.2668 23.4478 9.71556 21.8735 12.1898ZM16.9919 9.36574C17.1605 9.62016 17.2559 9.92863 17.2559 10.2562C17.2559 10.3548 17.2559 10.5297 17.3799 10.7364C18.6011 8.8251 19.8032 7.00602 21.0467 5.41591C20.5633 5.50496 20.1022 5.61626 19.6792 5.75619C19.2244 7.41308 18.2481 8.70107 16.9887 9.36574H16.9919Z" fill="#FA2935"/>
</svg>
