<svg width="15" height="14" viewBox="0 0 15 14" fill="none" xmlns="http://www.w3.org/2000/svg">
<path d="M1.63153 9.28307C1.63153 5.86116 6.12518 1.63464 10.3771 1.63464C11.8527 1.63464 12.8132 2.24525 12.8132 3.08165C12.8132 3.8608 11.716 4.86257 10.6188 5.50179L10.3453 5.36186C10.7906 5.02794 11.099 4.72264 11.099 4.30603C11.099 3.69543 10.2086 3.08165 8.86971 3.08165C5.98843 3.08165 3.62235 4.80532 3.62235 7.44808C3.62235 9.229 5.23474 10.3135 7.77255 10.3135C9.00647 10.3135 10.8574 9.92229 12.5047 8.75516L12.7432 8.94914C10.3072 10.9527 8.04605 12.3138 5.26654 12.3138C2.79869 12.3138 1.63153 10.9781 1.63153 9.28307Z" fill="#FA2935"/>
<path d="M5.26646 13.9484C1.62829 13.9484 0 11.6046 0 9.28305C0 4.77351 5.33323 0 10.3771 0C13.1725 0 14.4446 1.59647 14.4446 3.07845C14.4446 4.95478 12.3424 6.3827 11.4392 6.90743C10.959 7.18411 10.3739 7.20319 9.88096 6.95513L9.60742 6.8152C9.10495 6.56079 8.76787 6.06149 8.71699 5.50177C8.69154 5.22827 8.73926 4.95478 8.8442 4.7099C7.05692 4.71944 5.25372 5.65761 5.25372 7.44489C5.25372 8.61839 7.3495 8.67882 7.76929 8.67882C8.74561 8.67882 10.2498 8.34807 11.5569 7.42263C12.1548 6.99648 12.9594 7.02192 13.5287 7.48623L13.7672 7.68022C14.1488 7.9887 14.3714 8.45302 14.3714 8.94277C14.3714 9.43252 14.1552 9.89684 13.7767 10.2085C11.417 12.1484 8.75197 13.9453 5.26327 13.9453L5.26646 13.9484Z" fill="#FA2935"/>
</svg>
