<svg width="1394" height="451" viewBox="0 0 1394 451" fill="none" xmlns="http://www.w3.org/2000/svg">
<path d="M318.632 69.1622C311.892 70.8148 303.806 71.6411 294.398 71.6411C284.42 71.6411 275.855 71.011 268.694 69.7509C261.532 68.4908 257.948 65.5884 257.948 61.0333H196C196 73.366 206.25 81.6911 226.767 86.0086C247.276 90.326 269.825 92.4848 294.406 92.4848C318.987 92.4848 340.834 90.326 360.36 86.0086C379.886 81.6911 389.649 73.366 389.649 61.0333C389.649 51.6134 383.289 45.2921 370.577 42.0695C357.865 38.8469 341.321 37.2356 320.953 37.2356C317.161 37.2356 311.892 37.3182 305.152 37.4732L292.927 37.5868C283.933 37.5145 275.863 36.8844 268.694 35.7069C261.532 34.5294 257.948 32.3707 257.948 29.2307C257.948 26.4832 261.491 24.4794 268.586 23.2193C275.681 21.9592 284.288 21.3291 294.398 21.3291C303.946 21.4841 312.065 22.393 318.739 24.0353C325.413 25.6879 328.75 28.1565 328.75 31.4618H389.649C389.649 19.0568 379.886 10.711 360.36 6.42456C340.834 2.14841 318.846 0 294.406 0C278.671 0 263.779 0.609404 249.738 1.82821C235.688 3.04702 223.224 5.83581 212.338 10.1946C201.451 14.5534 196.008 21.0193 196.008 29.5716C196.008 36.6365 199.766 41.9972 207.283 45.6536C214.799 49.31 224 51.7064 234.887 52.8425C245.773 53.9787 258.237 54.5468 272.287 54.5468L293.357 54.4332C302.765 54.4332 311.024 54.8876 318.12 55.7863C325.215 56.6849 328.758 58.5957 328.758 61.4981C328.758 64.9583 325.388 67.5095 318.64 69.1518L318.632 69.1622Z" fill="#FA2935"/>
<path d="M401.758 69.8125C411.24 76.7638 424.018 82.2278 440.108 86.1838C456.189 90.1501 473.716 92.1332 492.681 92.1332C511.645 92.1332 530.328 90.1501 546.203 86.1838C562.079 82.2175 574.509 76.7845 583.504 69.8641C592.491 62.9541 596.992 55.1765 596.992 46.5415C596.992 37.9066 592.491 29.9947 583.504 23.0434C574.509 16.092 562.079 10.6384 546.203 6.67209C530.328 2.7058 512.487 0.722656 492.681 0.722656C472.874 0.722656 456.189 2.7058 440.108 6.67209C424.018 10.6384 411.24 16.1127 401.758 23.1053C392.276 30.098 387.535 37.9066 387.535 46.5519C387.535 55.1971 392.276 62.8715 401.758 69.8228V69.8125ZM458.229 35.531C462.235 32.4323 467.356 30.0567 473.609 28.404C479.862 26.7514 486.288 25.9251 492.887 25.9251C499.487 25.9251 506.127 26.7514 512.38 28.404C518.633 30.0567 523.721 32.4323 527.66 35.531C531.592 38.64 533.558 42.3067 533.558 46.5415C533.558 50.7764 531.592 54.3605 527.66 57.5005C523.729 60.6405 518.633 63.0368 512.38 64.6894C506.127 66.342 499.635 67.1683 492.887 67.1683C486.139 67.1683 479.853 66.342 473.609 64.6894C467.356 63.0368 462.227 60.6405 458.229 57.5005C454.223 54.3605 452.225 50.7041 452.225 46.5415C452.225 42.379 454.223 38.6296 458.229 35.531Z" fill="#FA2935"/>
<path d="M659.145 59.2658H752.075V36.2944H659.145V26.1617H769.776V2.60156H599.089V89.7773H659.145V59.2658Z" fill="#FA2935"/>
<path d="M832.987 4.04761L904.632 53.2544V89.7773H968.9V53.2544L1043.07 2.60156H983.016L935.605 33.2267L890.937 2.60156H832.987H830.881H772.931V89.7773H832.987V4.04761Z" fill="#FA2935"/>
<path d="M1029.38 89.7773L1042.23 76.5873H1125.46L1138.32 89.7773H1198.37L1113.88 2.60156H1053.82L969.323 89.7773H1029.38ZM1083.95 33.5882L1104.81 55.1446H1062.88L1083.95 33.5882Z" fill="#FA2935"/>
<path d="M1393.44 440.26H1345.86V103.01H1393.44V440.26Z" fill="#FA2935"/>
<path d="M1265.7 103.01V342.276H1339.99V440.26H1218.12V103.01H1265.7Z" fill="#FA2935"/>
<path d="M1209.69 440.26H1162.12V103.01H1209.69V440.26Z" fill="#FA2935"/>
<path d="M1042.99 440.26L1112.94 103.01L1042.99 440.26ZM1067.7 321.311L1112.94 103.01H1160.52L1093.91 440.26H1039.66L974.714 103.01H1025.63L1067.7 321.311Z" fill="#FA2935"/>
<path d="M866.996 220.136H925.427V103.01H973.006V440.26H925.427V319.944H866.996V440.26H819.417V103.01H866.996V220.136Z" fill="#FA2935"/>
<path d="M747.428 237.91C752.77 237.302 756.943 236.998 759.948 236.998C776.086 236.998 789.164 243.227 799.18 255.684C809.308 268.141 814.372 292.599 814.372 329.059C814.372 376.76 806.637 408.966 791.167 425.676C775.697 442.387 758.279 450.742 738.913 450.742C719.437 450.742 701.574 442.387 685.324 425.676C669.075 408.966 660.95 376.76 660.95 329.059H710.032C710.032 346.681 712.87 357.922 718.546 362.784C724.222 367.645 731.011 370.075 738.913 370.075C746.37 370.075 752.77 366.885 758.112 360.505C763.454 354.124 766.125 344.25 766.125 330.881C766.125 319.64 763.287 312.348 757.611 309.006C752.046 305.36 745.536 303.537 738.079 303.537L721.384 303.993C710.255 303.993 700.349 301.866 691.668 297.612C683.098 293.055 675.808 283.788 669.798 269.812C663.9 255.532 660.95 234.72 660.95 207.375C660.95 174.258 665.235 149.344 673.805 132.633C682.486 115.619 692.392 104.833 703.521 100.275C714.651 95.414 726.448 92.9834 738.913 92.9834C758.279 92.9834 775.697 101.339 791.167 118.049C806.637 134.456 814.372 166.662 814.372 214.667H766.125C766.125 201.906 763.454 192.335 758.112 185.955C752.881 179.575 746.482 176.081 738.913 175.473C730.9 175.473 724.055 177.904 718.379 182.765C712.814 187.626 710.032 195.374 710.032 206.008C710.032 218.161 712.87 226.516 718.546 231.074C724.222 235.631 730.622 238.062 737.745 238.366L747.428 237.91Z" fill="#FA2935"/>
<path d="M672.624 440.26H625.044L614.861 389.217H548.918L538.734 440.26H491.155L558.1 103.01H605.679L672.624 440.26ZM581.973 222.871L565.278 306.272H598.5L581.973 222.871Z" fill="#FA2935"/>
<path d="M492.747 440.26H445.167V103.01H492.747V440.26Z" fill="#FA2935"/>
<path d="M385.857 440.26L351.634 331.338H335.44V440.26H290.365V103.01H386.525C396.876 103.01 406.002 107.72 413.904 117.138C421.917 126.557 428.094 139.774 432.435 156.788C436.887 173.499 439.113 192.944 439.113 215.123V216.946C439.113 245.81 435.996 269.66 429.764 288.498C423.642 307.335 415.128 319.944 404.221 326.325L440.114 440.26H385.857ZM395.206 216.946C395.206 207.831 394.427 201.299 392.869 197.349C391.422 193.096 389.419 190.513 386.859 189.602C384.411 188.69 380.626 188.234 375.507 188.234H370.165C366.714 188.538 355.14 188.69 335.44 188.69V244.291H375.34H375.507C380.626 244.291 384.411 243.835 386.859 242.923C389.419 242.012 391.422 239.733 392.869 236.087C394.427 232.138 395.206 225.757 395.206 216.946Z" fill="#FA2935"/>
<path d="M202.651 95.7173C218.344 95.7173 232.479 103.465 245.055 118.96C257.632 134.152 267.481 155.268 274.604 182.309C281.727 209.046 285.289 239.277 285.289 273.002C285.289 306.423 281.727 336.502 274.604 363.239C267.481 389.976 257.632 411.092 245.055 426.587C232.479 441.779 218.344 449.374 202.651 449.374C187.626 449.374 173.714 441.779 160.915 426.587C148.228 411.092 138.1 389.976 130.531 363.239C123.075 336.198 119.346 306.119 119.346 273.002C119.346 239.58 123.075 209.349 130.531 182.309C138.1 155.268 148.228 134.152 160.915 118.96C173.714 103.465 187.626 95.7173 202.651 95.7173ZM202.818 352.757C208.161 352.757 213.28 349.566 218.177 343.186C223.186 336.806 227.248 327.539 230.364 315.386C233.48 303.233 235.039 289.104 235.039 273.002C235.039 256.595 233.48 242.467 230.364 230.617C227.248 218.464 223.186 209.197 218.177 202.817C213.28 196.437 208.161 193.246 202.818 193.246C197.587 193.246 192.468 196.437 187.459 202.817C182.562 209.197 178.5 218.464 175.273 230.617C172.156 242.467 170.598 256.595 170.598 273.002C170.598 289.104 172.156 303.233 175.273 315.386C178.5 327.539 182.562 336.806 187.459 343.186C192.468 349.566 197.587 352.757 202.818 352.757Z" fill="#FA2935"/>
<path d="M47.5791 103.01V342.276H121.869V440.26H0V103.01H47.5791Z" fill="#FA2935"/>
</svg>
