<?xml version="1.0" encoding="UTF-8"?>
<svg id="Layer_1" xmlns="http://www.w3.org/2000/svg" version="1.1" viewBox="0 0 1394 451">
  <!-- Generator: Adobe Illustrator 30.4.0, SVG Export Plug-In . SVG Version: 2.1.4 Build 226)  -->
  <defs>
    <style>
      .st0 {
        fill: #81d0fc;
      }
    </style>
  </defs>
  <path class="st0" d="M318.6,69.2c-6.7,1.7-14.8,2.5-24.2,2.5s-18.5-.6-25.7-1.9c-7.2-1.3-10.7-4.2-10.7-8.7h-61.9c0,12.3,10.2,20.7,30.8,25,20.5,4.3,43.1,6.5,67.6,6.5s46.4-2.2,66-6.5c19.5-4.3,29.3-12.6,29.3-25s-6.4-15.7-19.1-19-29.3-4.8-49.6-4.8-9.1,0-15.8.2h-12.2c-9,0-17.1-.6-24.2-1.8-7.2-1.2-10.7-3.3-10.7-6.5s3.5-4.8,10.6-6c7.1-1.3,15.7-1.9,25.8-1.9,9.5.2,17.7,1.1,24.3,2.7,6.7,1.7,10,4.1,10,7.4h60.9c0-12.4-9.8-20.8-29.3-25C340.8,2.1,318.8,0,294.4,0s-30.6.6-44.7,1.8c-14.1,1.2-26.5,4-37.4,8.4-10.9,4.4-16.3,10.8-16.3,19.4s3.8,12.4,11.3,16.1c7.5,3.7,16.7,6.1,27.6,7.2,10.9,1.1,23.4,1.7,37.4,1.7h21.1c9.4-.1,17.7.3,24.8,1.2,7.1.9,10.6,2.8,10.6,5.7s-3.4,6-10.1,7.7h0Z"/>
  <path class="st0" d="M401.8,69.8c9.5,7,22.3,12.4,38.4,16.4,16.1,4,33.6,5.9,52.6,5.9s37.6-2,53.5-5.9c15.9-4,28.3-9.4,37.3-16.3,9-6.9,13.5-14.7,13.5-23.3s-4.5-16.5-13.5-23.5c-9-7-21.4-12.4-37.3-16.4-15.9-4-33.7-5.9-53.5-5.9s-36.5,2-52.6,5.9c-16.1,4-28.9,9.4-38.4,16.4-9.5,7-14.2,14.8-14.2,23.4s4.7,16.3,14.2,23.3h0ZM458.2,35.5c4-3.1,9.1-5.5,15.4-7.1,6.3-1.7,12.7-2.5,19.3-2.5s13.2.8,19.5,2.5c6.3,1.7,11.3,4,15.3,7.1,3.9,3.1,5.9,6.8,5.9,11s-2,7.8-5.9,11c-3.9,3.1-9,5.5-15.3,7.2-6.3,1.7-12.7,2.5-19.5,2.5s-13-.8-19.3-2.5c-6.3-1.7-11.4-4-15.4-7.2-4-3.1-6-6.8-6-11s2-7.9,6-11Z"/>
  <path class="st0" d="M659.1,59.3h92.9v-23h-92.9v-10.1h110.6V2.6h-170.7v87.2h60.1v-30.5Z"/>
  <path class="st0" d="M833,4l71.6,49.2v36.5h64.3v-36.5l74.2-50.7h-60.1l-47.4,30.6-44.7-30.6h-118v87.2h60.1V4Z"/>
  <path class="st0" d="M1029.4,89.8l12.8-13.2h83.2l12.9,13.2h60.1L1113.9,2.6h-60.1l-84.5,87.2h60.1ZM1083.9,33.6l20.9,21.6h-41.9l21.1-21.6Z"/>
  <path class="st0" d="M1393.4,440.3h-47.6V103h47.6v337.3Z"/>
  <path class="st0" d="M1265.7,103v239.3h74.3v98h-121.9V103h47.6Z"/>
  <path class="st0" d="M1209.7,440.3h-47.6V103h47.6v337.3Z"/>
  <path class="st0" d="M1043,440.3l69.9-337.3-69.9,337.3ZM1067.7,321.3l45.2-218.3h47.6l-66.6,337.3h-54.2l-64.9-337.3h50.9l42.1,218.3Z"/>
  <path class="st0" d="M867,220.1h58.4v-117.1h47.6v337.3h-47.6v-120.3h-58.4v120.3h-47.6V103h47.6v117.1Z"/>
  <path class="st0" d="M747.4,237.9c5.3-.6,9.5-.9,12.5-.9,16.1,0,29.2,6.2,39.2,18.7,10.1,12.5,15.2,36.9,15.2,73.4s-7.7,79.9-23.2,96.6c-15.5,16.7-32.9,25.1-52.3,25.1s-37.3-8.4-53.6-25.1c-16.2-16.7-24.4-48.9-24.4-96.6h49.1c0,17.6,2.8,28.9,8.5,33.7,5.7,4.9,12.5,7.3,20.4,7.3s13.9-3.2,19.2-9.6c5.3-6.4,8-16.3,8-29.6s-2.8-18.5-8.5-21.9c-5.6-3.6-12.1-5.5-19.5-5.5l-16.7.5c-11.1,0-21-2.1-29.7-6.4-8.6-4.6-15.9-13.8-21.9-27.8-5.9-14.3-8.8-35.1-8.8-62.4s4.3-58,12.9-74.7c8.7-17,18.6-27.8,29.7-32.4,11.1-4.9,22.9-7.3,35.4-7.3,19.4,0,36.8,8.4,52.3,25.1,15.5,16.4,23.2,48.6,23.2,96.6h-48.2c0-12.8-2.7-22.3-8-28.7-5.2-6.4-11.6-9.9-19.2-10.5-8,0-14.9,2.4-20.5,7.3-5.6,4.9-8.3,12.6-8.3,23.2s2.8,20.5,8.5,25.1c5.7,4.6,12.1,7,19.2,7.3l9.7-.5Z"/>
  <path class="st0" d="M672.6,440.3h-47.6l-10.2-51h-65.9l-10.2,51h-47.6l66.9-337.3h47.6l66.9,337.3ZM582,222.9l-16.7,83.4h33.2l-16.5-83.4Z"/>
  <path class="st0" d="M492.7,440.3h-47.6V103h47.6v337.3Z"/>
  <path class="st0" d="M385.9,440.3l-34.2-108.9h-16.2v108.9h-45.1V103h96.2c10.4,0,19.5,4.7,27.4,14.1,8,9.4,14.2,22.6,18.5,39.6,4.5,16.7,6.7,36.2,6.7,58.3v1.8c0,28.9-3.1,52.7-9.3,71.6-6.1,18.8-14.6,31.4-25.5,37.8l35.9,113.9h-54.3ZM395.2,216.9c0-9.1-.8-15.6-2.3-19.6-1.4-4.3-3.4-6.8-6-7.7-2.4-.9-6.2-1.4-11.4-1.4h-5.3c-3.5.3-15,.5-34.7.5v55.6h40.1c5.1,0,8.9-.5,11.4-1.4,2.6-.9,4.6-3.2,6-6.8,1.6-3.9,2.3-10.3,2.3-19.1Z"/>
  <path class="st0" d="M202.7,95.7c15.7,0,29.8,7.7,42.4,23.2,12.6,15.2,22.4,36.3,29.5,63.3,7.1,26.7,10.7,57,10.7,90.7s-3.6,63.5-10.7,90.2c-7.1,26.7-17,47.9-29.5,63.3-12.6,15.2-26.7,22.8-42.4,22.8s-28.9-7.6-41.7-22.8c-12.7-15.5-22.8-36.6-30.4-63.3-7.5-27-11.2-57.1-11.2-90.2s3.7-63.7,11.2-90.7c7.6-27,17.7-48.2,30.4-63.3,12.8-15.5,26.7-23.2,41.7-23.2ZM202.8,352.8c5.3,0,10.5-3.2,15.4-9.6,5-6.4,9.1-15.6,12.2-27.8,3.1-12.2,4.7-26.3,4.7-42.4s-1.6-30.5-4.7-42.4c-3.1-12.2-7.2-21.4-12.2-27.8-4.9-6.4-10-9.6-15.4-9.6s-10.3,3.2-15.4,9.6c-4.9,6.4-9,15.6-12.2,27.8-3.1,11.8-4.7,26-4.7,42.4s1.6,30.2,4.7,42.4c3.2,12.2,7.3,21.4,12.2,27.8,5,6.4,10.1,9.6,15.4,9.6Z"/>
  <path class="st0" d="M47.6,103v239.3h74.3v98H0V103h47.6Z"/>
</svg>