<svg width="64" height="135" viewBox="0 0 64 135" fill="none" xmlns="http://www.w3.org/2000/svg">
<path d="M31.741 0C37.7203 0 43.1059 2.95201 47.8978 8.85604C52.6897 14.6443 56.4426 22.69 59.1566 32.9931C61.8706 43.1804 63.2276 54.6991 63.2276 67.549C63.2276 80.2832 61.8706 91.7439 59.1566 101.931C56.4426 112.119 52.6897 120.164 47.8978 126.068C43.1059 131.857 37.7203 134.751 31.741 134.751C26.0162 134.751 20.7154 131.857 15.8387 126.068C11.0044 120.164 7.14544 112.119 4.26182 101.931C1.42061 91.6282 0 80.1674 0 67.549C0 54.8148 1.42061 43.2962 4.26182 32.9931C7.14544 22.69 11.0044 14.6443 15.8387 8.85604C20.7154 2.95201 26.0162 0 31.741 0ZM31.8046 97.9374C33.8401 97.9374 35.7908 96.7219 37.6567 94.2908C39.565 91.8597 41.1128 88.3289 42.3002 83.6983C43.4875 79.0677 44.0812 73.6846 44.0812 67.549C44.0812 61.2977 43.4875 55.9146 42.3002 51.3998C41.1128 46.7692 39.565 43.2383 37.6567 40.8072C35.7908 38.3762 33.8401 37.1606 31.8046 37.1606C29.8116 37.1606 27.8609 38.3762 25.9526 40.8072C24.0867 43.2383 22.5389 46.7692 21.3091 51.3998C20.1217 55.9146 19.5281 61.2977 19.5281 67.549C19.5281 73.6846 20.1217 79.0677 21.3091 83.6983C22.5389 88.3289 24.0867 91.8597 25.9526 94.2908C27.8609 96.7219 29.8116 97.9374 31.8046 97.9374Z" fill="#FA2935"/>
</svg>
