<svg width="74" height="36" viewBox="0 0 74 36" fill="none" xmlns="http://www.w3.org/2000/svg">
<path d="M46.7252 26.3522C44.1572 26.9819 41.0762 27.2968 37.4916 27.2968C33.6899 27.2968 30.4263 27.0567 27.6978 26.5766C24.9692 26.0964 23.6034 24.9905 23.6034 23.255H0C0 27.954 3.90557 31.126 11.723 32.7711C19.5373 34.4161 28.1289 35.2386 37.4947 35.2386C46.8605 35.2386 55.1847 34.4161 62.6245 32.7711C70.0642 31.126 73.7841 27.954 73.7841 23.255C73.7841 19.6658 71.3608 17.2572 66.5174 16.0294C61.674 14.8015 55.3703 14.1875 47.6096 14.1875C46.165 14.1875 44.1572 14.219 41.5891 14.2781L36.9314 14.3213C33.5042 14.2938 30.4295 14.0537 27.6978 13.6051C24.9692 13.1564 23.6034 12.3339 23.6034 11.1375C23.6034 10.0907 24.9535 9.32718 27.6569 8.84704C30.3602 8.36691 33.6395 8.12684 37.4916 8.12684C41.1297 8.18588 44.2233 8.5322 46.7661 9.15795C49.309 9.78763 50.5804 10.7282 50.5804 11.9876H73.7841C73.7841 7.26103 70.0642 4.08113 62.6245 2.44789C55.1847 0.818588 46.807 0 37.4947 0C31.4995 0 25.8252 0.232196 20.4751 0.696587C15.1219 1.16098 10.3729 2.22357 6.22499 3.88436C2.0771 5.54514 0.00315019 8.00878 0.00315019 11.2674C0.00315019 13.9593 1.43509 16.0018 4.29896 17.395C7.16284 18.7882 10.6687 19.7012 14.8166 20.1341C18.9645 20.567 23.7135 20.7835 29.0668 20.7835L37.0951 20.7402C40.6796 20.7402 43.8267 20.9133 46.5301 21.2557C49.2335 21.5981 50.5836 22.3262 50.5836 23.4321C50.5836 24.7505 49.2996 25.7225 46.7284 26.3483L46.7252 26.3522Z" fill="#FA2935"/>
</svg>
