<svg width="210" height="92" viewBox="0 0 210 92" fill="none" xmlns="http://www.w3.org/2000/svg">
<path d="M14.2232 69.0898C23.7053 76.0412 36.4831 81.5051 52.573 85.4611C68.6546 89.4274 86.1817 91.4105 105.146 91.4105C124.11 91.4105 142.794 89.4274 158.669 85.4611C174.544 81.4948 186.975 76.0618 195.969 69.1415C204.956 62.2315 209.458 54.4538 209.458 45.8189C209.458 37.1839 204.956 29.272 195.969 22.3207C186.975 15.3694 174.544 9.91572 158.669 5.94943C142.794 1.98314 124.953 0 105.146 0C85.3392 0 68.6546 1.98314 52.573 5.94943C36.4831 9.91572 23.7053 15.39 14.2232 22.3827C4.74109 29.3753 0 37.184 0 45.8292C0 54.4745 4.74109 62.1488 14.2232 69.1002V69.0898ZM70.6947 34.8083C74.7007 31.7096 79.8217 29.334 86.0743 27.6814C92.3269 26.0288 98.7529 25.2025 105.352 25.2025C111.952 25.2025 118.593 26.0288 124.845 27.6814C131.098 29.334 136.186 31.7096 140.126 34.8083C144.057 37.9173 146.023 41.584 146.023 45.8189C146.023 50.0537 144.057 53.6378 140.126 56.7778C136.194 59.9178 131.098 62.3141 124.845 63.9667C118.593 65.6193 112.101 66.4456 105.352 66.4456C98.6043 66.4456 92.3186 65.6193 86.0743 63.9667C79.8217 62.3141 74.6924 59.9178 70.6947 56.7778C66.6888 53.6378 64.6899 49.9814 64.6899 45.8189C64.6899 41.6564 66.6888 37.907 70.6947 34.8083Z" fill="#FA2935"/>
</svg>
