<svg width="59" height="137" viewBox="0 0 59 137" fill="none" xmlns="http://www.w3.org/2000/svg">
<path d="M32.9496 55.22C34.9851 54.9885 36.5753 54.8727 37.7203 54.8727C43.8692 54.8727 48.8519 57.2459 52.6685 61.9923C56.5274 66.7386 58.4569 76.0577 58.4569 89.9496C58.4569 108.125 55.5097 120.396 49.6152 126.763C43.7208 133.13 37.0842 136.314 29.7055 136.314C22.2845 136.314 15.4783 133.13 9.28695 126.763C3.09565 120.396 0 108.125 0 89.9496H18.7011C18.7011 96.6639 19.7825 100.947 21.9452 102.8C24.1079 104.652 26.6947 105.578 29.7055 105.578C32.5468 105.578 34.9851 104.362 37.0206 101.931C39.0561 99.5002 40.0739 95.7378 40.0739 90.6442C40.0739 86.3608 38.9925 83.5825 36.8298 82.3091C34.7095 80.9199 32.2287 80.2253 29.3875 80.2253L23.0266 80.3989C18.7859 80.3989 15.0118 79.5886 11.7041 77.9679C8.43882 76.2314 5.66122 72.7005 3.37129 67.3753C1.12376 61.9344 0 54.0045 0 43.5856C0 30.9672 1.63263 21.4744 4.8979 15.1074C8.20559 8.62451 11.9797 4.51484 16.2204 2.77836C20.461 0.926121 24.956 0 29.7055 0C37.0842 0 43.7208 3.18354 49.6152 9.55063C55.5097 15.8019 58.4569 28.0731 58.4569 46.364H40.0739C40.0739 41.5018 39.0561 37.8552 37.0206 35.4242C35.0275 32.9931 32.5892 31.6618 29.7055 31.4303C26.6523 31.4303 24.0443 32.3564 21.8816 34.2086C19.7613 36.0609 18.7011 39.0129 18.7011 43.0647C18.7011 47.6953 19.7825 50.8788 21.9452 52.6153C24.1079 54.3518 26.5463 55.2779 29.2603 55.3937L32.9496 55.22Z" fill="#FA2935"/>
</svg>
