<svg width="194" height="93" viewBox="0 0 194 93" fill="none" xmlns="http://www.w3.org/2000/svg">
<path d="M122.632 69.1622C115.892 70.8148 107.806 71.6411 98.3977 71.6411C88.42 71.6411 79.8547 71.011 72.6936 69.7509C65.5324 68.4908 61.9477 65.5884 61.9477 61.0333H0C0 73.366 10.2503 81.6911 30.7674 86.0086C51.2762 90.326 73.8251 92.4848 98.406 92.4848C122.987 92.4848 144.834 90.326 164.36 86.0086C183.886 81.6911 193.649 73.366 193.649 61.0333C193.649 51.6134 187.289 45.2921 174.577 42.0695C161.865 38.8469 145.321 37.2356 124.953 37.2356C121.161 37.2356 115.892 37.3182 109.152 37.4732L96.9275 37.5868C87.9327 37.5145 79.863 36.8844 72.6936 35.7069C65.5324 34.5294 61.9477 32.3707 61.9477 29.2307C61.9477 26.4832 65.4911 24.4794 72.5862 23.2193C79.6812 21.9592 88.2879 21.3291 98.3977 21.3291C107.946 21.4841 116.065 22.393 122.739 24.0353C129.413 25.6879 132.75 28.1565 132.75 31.4618H193.649C193.649 19.0568 183.886 10.711 164.36 6.42456C144.834 2.14841 122.846 0 98.406 0C82.6712 0 67.7791 0.609404 53.7376 1.82821C39.6878 3.04702 27.2239 5.83581 16.3377 10.1946C5.4514 14.5534 0.00826776 21.0193 0.00826776 29.5716C0.00826776 36.6365 3.76642 41.9972 11.2827 45.6536C18.7991 49.31 28.0004 51.7064 38.8866 52.8425C49.7729 53.9787 62.2368 54.5468 76.2865 54.5468L97.357 54.4332C106.765 54.4332 115.024 54.8876 122.12 55.7863C129.215 56.6849 132.758 58.5957 132.758 61.4981C132.758 64.9583 129.388 67.5095 122.64 69.1518L122.632 69.1622Z" fill="#FA2935"/>
</svg>
