<svg width="58" height="129" viewBox="0 0 58 129" fill="none" xmlns="http://www.w3.org/2000/svg">
<path d="M36.3845 128.499L23.3446 86.9976H17.1745V128.499H0V0H36.6389C40.5827 0 44.06 1.79436 47.0709 5.38308C50.1241 8.9718 52.4777 14.0076 54.1315 20.4904C55.8277 26.8575 56.6759 34.2665 56.6759 42.7174V43.412C56.6759 54.4096 55.4885 63.4972 53.1137 70.6747C50.7814 77.8521 47.5373 82.6564 43.3815 85.0874L57.0575 128.499H36.3845ZM39.9466 43.412C39.9466 39.939 39.6498 37.45 39.0561 35.9451C38.5048 34.3244 37.7415 33.3404 36.7662 32.9931C35.8332 32.6458 34.3914 32.4721 32.4407 32.4721H30.4052C29.0906 32.5879 24.6804 32.6458 17.1745 32.6458V53.8308H32.3771H32.4407C34.3914 53.8308 35.8332 53.6572 36.7662 53.3099C37.7415 52.9626 38.5048 52.0943 39.0561 50.7052C39.6498 49.2002 39.9466 46.7691 39.9466 43.412Z" fill="#FA2935"/>
</svg>
