<svg width="80" height="35" viewBox="0 0 80 35" fill="none" xmlns="http://www.w3.org/2000/svg">
<path d="M5.41934 26.3247C9.03223 28.9733 13.9008 31.0552 20.0314 32.5625C26.1588 34.0737 32.837 34.8293 40.0628 34.8293C47.2886 34.8293 54.4074 34.0737 60.4561 32.5625C66.5049 31.0512 71.2413 28.9811 74.6685 26.3444C78.0925 23.7115 79.8077 20.748 79.8077 17.458C79.8077 14.1679 78.0925 11.1533 74.6685 8.50465C71.2413 5.85605 66.5049 3.7781 60.4561 2.26686C54.4074 0.755619 47.6096 0 40.0628 0C32.516 0 26.1588 0.755619 20.0314 2.26686C13.9008 3.7781 9.03223 5.86392 5.41934 8.52827C1.80645 11.1926 0 14.1679 0 17.4619C0 20.7559 1.80645 23.68 5.41934 26.3286V26.3247ZM26.9362 13.2627C28.4625 12.082 30.4137 11.1769 32.7961 10.5472C35.1785 9.9175 37.6269 9.60266 40.1415 9.60266C42.656 9.60266 45.1863 9.9175 47.5687 10.5472C49.951 11.1769 51.8897 12.082 53.3908 13.2627C54.8889 14.4473 55.6379 15.8444 55.6379 17.458C55.6379 19.0715 54.8889 20.4371 53.3908 21.6335C51.8928 22.8299 49.951 23.743 47.5687 24.3727C45.1863 25.0023 42.7127 25.3172 40.1415 25.3172C37.5703 25.3172 35.1753 25.0023 32.7961 24.3727C30.4137 23.743 28.4594 22.8299 26.9362 21.6335C25.4098 20.4371 24.6482 19.044 24.6482 17.458C24.6482 15.8719 25.4098 14.4434 26.9362 13.2627Z" fill="#FA2935"/>
</svg>
